<svg width="13" height="13" viewBox="0 0 13 13" fill="none" xmlns="http://www.w3.org/2000/svg">
<path d="M8.50328 6.39385L12.4591 2.43806C12.8962 2.00098 12.8962 1.29237 12.4591 0.855983L11.9317 0.328625C11.4945 -0.108586 10.7859 -0.108586 10.3495 0.328625L6.39385 4.28429L2.43806 0.327806C2.00098 -0.109269 1.29237 -0.109269 0.855983 0.327806L0.327806 0.855163C-0.109269 1.29237 -0.109269 2.00098 0.327806 2.43737L4.28429 6.39385L0.328625 10.3495C-0.108586 10.7867 -0.108586 11.4953 0.328625 11.9317L0.855983 12.4591C1.29306 12.8962 2.00166 12.8962 2.43806 12.4591L6.39385 8.50328L10.3495 12.4591C10.7867 12.8962 11.4953 12.8962 11.9317 12.4591L12.4591 11.9317C12.8962 11.4945 12.8962 10.7859 12.4591 10.3495L8.50328 6.39385Z" fill="#ED1C24"/>
</svg>
