<svg width="17" height="25" viewBox="0 0 17 25" fill="none" xmlns="http://www.w3.org/2000/svg">
<g filter="url(#filter0_d)">
<path d="M7.13574 11.5957C7.15007 10.7435 7.24674 10.0703 7.42578 9.57617C7.60482 9.08203 7.97005 8.53418 8.52148 7.93262L9.92871 6.48242C10.5303 5.80208 10.8311 5.07161 10.8311 4.29102C10.8311 3.53906 10.6341 2.95182 10.2402 2.5293C9.84635 2.09961 9.27344 1.88477 8.52148 1.88477C7.79102 1.88477 7.20378 2.07812 6.75977 2.46484C6.31576 2.85156 6.09375 3.37077 6.09375 4.02246H4.10645C4.12077 2.8623 4.53255 1.92773 5.3418 1.21875C6.1582 0.502604 7.2181 0.144531 8.52148 0.144531C9.875 0.144531 10.9277 0.509766 11.6797 1.24023C12.4388 1.96354 12.8184 2.95898 12.8184 4.22656C12.8184 5.47982 12.2383 6.71517 11.0781 7.93262L9.90723 9.09277C9.38444 9.67285 9.12305 10.5072 9.12305 11.5957H7.13574ZM7.0498 15.001C7.0498 14.6787 7.14648 14.4102 7.33984 14.1953C7.54036 13.9733 7.83398 13.8623 8.2207 13.8623C8.60742 13.8623 8.90104 13.9733 9.10156 14.1953C9.30208 14.4102 9.40234 14.6787 9.40234 15.001C9.40234 15.3232 9.30208 15.5918 9.10156 15.8066C8.90104 16.0143 8.60742 16.1182 8.2207 16.1182C7.83398 16.1182 7.54036 16.0143 7.33984 15.8066C7.14648 15.5918 7.0498 15.3232 7.0498 15.001Z" fill="#93979E"/>
</g>
<defs>
<filter id="filter0_d" x="0.106445" y="0.144531" width="16.7119" height="23.9736" filterUnits="userSpaceOnUse" color-interpolation-filters="sRGB">
<feFlood flood-opacity="0" result="BackgroundImageFix"/>
<feColorMatrix in="SourceAlpha" type="matrix" values="0 0 0 0 0 0 0 0 0 0 0 0 0 0 0 0 0 0 127 0"/>
<feOffset dy="4"/>
<feGaussianBlur stdDeviation="2"/>
<feColorMatrix type="matrix" values="0 0 0 0 0 0 0 0 0 0 0 0 0 0 0 0 0 0 0.25 0"/>
<feBlend mode="normal" in2="BackgroundImageFix" result="effect1_dropShadow"/>
<feBlend mode="normal" in="SourceGraphic" in2="effect1_dropShadow" result="shape"/>
</filter>
</defs>
</svg>
