<svg fill="none" height="80" viewBox="0 0 70 80" width="70" xmlns="http://www.w3.org/2000/svg" xmlns:xlink="http://www.w3.org/1999/xlink"><clipPath id="a"><path d="m0 0h70v80h-70z"/></clipPath><g clip-path="url(#a)"><path d="m10.1613 4c0-2.20914 1.7908-4 4-4h35.5161l20.3226 20.5714v55.4286c0 2.2091-1.7909 4-4 4h-51.8387c-2.2092 0-4-1.7909-4-4z" fill="#f3f4f7"/><rect fill="#2fc787" height="29" rx="2" width="60" y="38"/><path d="m20.1641 59.162c-1.248 0-2.34-.264-3.276-.792-.924-.54-1.638-1.302-2.142-2.286-.492-.984-.738-2.13-.738-3.438s.246-2.448.738-3.42c.504-.984 1.218-1.74 2.142-2.268.936-.54 2.028-.81 3.276-.81.852 0 1.656.132 2.412.396s1.392.636 1.908 1.116l-.774 1.692c-.576-.456-1.146-.786-1.71-.99-.564-.216-1.164-.324-1.8-.324-1.224 0-2.172.396-2.844 1.188-.66.792-.99 1.932-.99 3.42 0 1.5.33 2.646.99 3.438.672.792 1.62 1.188 2.844 1.188.636 0 1.236-.102 1.8-.306.564-.216 1.134-.552 1.71-1.008l.774 1.692c-.516.48-1.152.852-1.908 1.116s-1.56.396-2.412.396zm10.5127 0c-.972 0-1.884-.132-2.736-.396s-1.572-.636-2.16-1.116l.774-1.692c.612.468 1.254.81 1.926 1.026.684.216 1.422.324 2.214.324.876 0 1.548-.15 2.016-.45.48-.312.72-.744.72-1.296 0-.48-.222-.846-.666-1.098-.432-.252-1.158-.492-2.178-.72-1.056-.228-1.914-.492-2.574-.792s-1.158-.684-1.494-1.152-.504-1.062-.504-1.782c0-.744.204-1.41.612-1.998s.984-1.044 1.728-1.368c.744-.336 1.602-.504 2.574-.504.888 0 1.734.138 2.538.414.804.264 1.464.63 1.98 1.098l-.774 1.692c-1.128-.9-2.376-1.35-3.744-1.35-.816 0-1.464.168-1.944.504-.468.324-.702.78-.702 1.368 0 .492.21.87.63 1.134s1.134.51 2.142.738c1.068.24 1.932.51 2.592.81.672.288 1.182.66 1.53 1.116.36.456.54 1.032.54 1.728 0 .756-.204 1.422-.612 1.998-.396.564-.978 1.002-1.746 1.314-.756.3-1.65.45-2.682.45zm11.4786 0c-.972 0-1.884-.132-2.736-.396s-1.572-.636-2.16-1.116l.774-1.692c.612.468 1.254.81 1.926 1.026.684.216 1.422.324 2.214.324.876 0 1.548-.15 2.016-.45.48-.312.72-.744.72-1.296 0-.48-.222-.846-.666-1.098-.432-.252-1.158-.492-2.178-.72-1.056-.228-1.914-.492-2.574-.792s-1.158-.684-1.494-1.152-.504-1.062-.504-1.782c0-.744.204-1.41.612-1.998s.984-1.044 1.728-1.368c.744-.336 1.602-.504 2.574-.504.888 0 1.734.138 2.538.414.804.264 1.464.63 1.98 1.098l-.774 1.692c-1.128-.9-2.376-1.35-3.744-1.35-.816 0-1.464.168-1.944.504-.468.324-.702.78-.702 1.368 0 .492.21.87.63 1.134s1.134.51 2.142.738c1.068.24 1.932.51 2.592.81.672.288 1.182.66 1.53 1.116.36.456.54 1.032.54 1.728 0 .756-.204 1.422-.612 1.998-.396.564-.978 1.002-1.746 1.314-.756.3-1.65.45-2.682.45z" fill="#fff"/><path d="m49.6774 14.8571v-14.8571l20.3226 20.5714h-14.6774c-3.3871 0-5.6452-2.2857-5.6452-5.7143z" fill="#d7d9e0"/></g></svg>