<svg fill="none" height="80" viewBox="0 0 70 80" width="70" xmlns="http://www.w3.org/2000/svg" xmlns:xlink="http://www.w3.org/1999/xlink"><clipPath id="a"><path d="m0 0h70v80h-70z"/></clipPath><g clip-path="url(#a)"><path d="m10.1613 4c0-2.20914 1.7908-4 4-4h35.5161l20.3226 20.5714v55.4286c0 2.2091-1.7909 4-4 4h-51.8387c-2.2092 0-4-1.7909-4-4z" fill="#f3f4f7"/><rect fill="#2fc787" height="29" rx="2" width="60" y="38"/><path d="m11.6438 46.31h5.544c1.356 0 2.412.342 3.168 1.026.756.672 1.134 1.62 1.134 2.844s-.378 2.178-1.134 2.862-1.812 1.026-3.168 1.026h-3.222v4.932h-2.322zm5.256 5.976c1.596 0 2.394-.696 2.394-2.088 0-.708-.198-1.23-.594-1.566-.396-.348-.996-.522-1.8-.522h-2.934v4.176zm7.5268-5.976h4.68c2.076 0 3.684.558 4.824 1.674 1.152 1.104 1.728 2.658 1.728 4.662s-.576 3.564-1.728 4.68c-1.14 1.116-2.748 1.674-4.824 1.674h-4.68zm4.536 10.8c2.916 0 4.374-1.488 4.374-4.464 0-2.964-1.458-4.446-4.374-4.446h-2.214v8.91zm9.9343-10.8h8.316v1.854h-6.03v3.456h5.67v1.854h-5.67v5.526h-2.286z" fill="#fff"/><path d="m49.6774 14.8571v-14.8571l20.3226 20.5714h-14.6774c-3.3871 0-5.6452-2.2857-5.6452-5.7143z" fill="#d7d9e0"/></g></svg>