<svg fill="none" height="80" viewBox="0 0 70 80" width="70" xmlns="http://www.w3.org/2000/svg" xmlns:xlink="http://www.w3.org/1999/xlink"><clipPath id="a"><path d="m0 0h70v80h-70z"/></clipPath><g clip-path="url(#a)"><path d="m9.30646 4c0-2.20914 1.79084-4 4.00004-4h36.0806l20.6129 20.5714v55.4286c0 2.2091-1.7909 4-4 4h-52.6935c-2.2092 0-4.00004-1.7909-4.00004-4z" fill="#f3f4f7"/><rect fill="#ef5164" height="29" rx="2" width="60" y="38"/><path d="m12.2508 57.29 1.26-.09c1.068-.072 1.602-.66 1.602-1.764v-9.126h2.322v9.108c0 1.128-.3 2.004-.9 2.628-.588.612-1.47.954-2.646 1.026l-1.476.09zm8.8272-10.98h5.544c1.356 0 2.412.342 3.168 1.026.756.672 1.134 1.62 1.134 2.844s-.378 2.178-1.134 2.862-1.812 1.026-3.168 1.026h-3.222v4.932h-2.322zm5.256 5.976c1.596 0 2.394-.696 2.394-2.088 0-.708-.198-1.23-.594-1.566-.396-.348-.996-.522-1.8-.522h-2.934v4.176zm18.058-.144v6.084c-.576.288-1.278.516-2.106.684-.816.168-1.65.252-2.502.252-1.308 0-2.442-.258-3.402-.774-.96-.528-1.698-1.278-2.214-2.25-.504-.984-.756-2.148-.756-3.492 0-1.332.252-2.484.756-3.456.516-.984 1.242-1.734 2.178-2.25.948-.528 2.058-.792 3.33-.792.888 0 1.722.132 2.502.396.78.252 1.428.618 1.944 1.098l-.774 1.674c-.588-.456-1.17-.78-1.746-.972-.564-.204-1.188-.306-1.872-.306-1.308 0-2.298.39-2.97 1.17-.66.768-.99 1.914-.99 3.438 0 3.12 1.368 4.68 4.104 4.68.816 0 1.632-.114 2.448-.342v-3.186h-2.736v-1.656z" fill="#fff"/><path d="m49.3871 14.8571v-14.8571l20.6129 20.5714h-14.8871c-3.4355 0-5.7258-2.2857-5.7258-5.7143z" fill="#d7d9e0"/></g></svg>