<svg width="89" height="89" viewBox="0 0 89 89" fill="none" xmlns="http://www.w3.org/2000/svg">
<g clip-path="url(#clip0)">
<path d="M52.3711 44.501L87.3692 9.50288C89.5436 7.33034 89.5436 3.80529 87.3692 1.63275C85.1948 -0.541646 81.6735 -0.541646 79.4991 1.63275L44.5009 36.6309L9.50093 1.63275C7.32653 -0.541646 3.8052 -0.541646 1.6308 1.63275C-0.543599 3.80529 -0.543599 7.33034 1.6308 9.50288L36.6308 44.501L1.6308 79.4992C-0.543599 81.6717 -0.543599 85.1968 1.6308 87.3693C2.718 88.4546 4.14286 88.9982 5.56586 88.9982C6.98887 88.9982 8.41373 88.4546 9.50093 87.3674L44.5009 52.3693L79.4991 87.3674C80.5863 88.4546 82.0111 88.9982 83.4341 88.9982C84.8571 88.9982 86.282 88.4546 87.3692 87.3674C89.5436 85.1949 89.5436 81.6699 87.3692 79.4973L52.3711 44.501Z" fill="#ED1C24"/>
</g>
<defs>
<clipPath id="clip0">
<rect width="89" height="89" fill="white"/>
</clipPath>
</defs>
</svg>
