<svg fill="none" height="80" viewBox="0 0 70 80" width="70" xmlns="http://www.w3.org/2000/svg" xmlns:xlink="http://www.w3.org/1999/xlink"><clipPath id="a"><path d="m0 0h70v80h-70z"/></clipPath><g clip-path="url(#a)"><path d="m10.1613 4c0-2.20914 1.7909-4 4-4h35.5161l20.3226 20.5714v55.4286c0 2.2091-1.7909 4-4 4h-51.8387c-2.2091 0-4-1.7909-4-4z" fill="#f3f4f7"/><rect fill="#2fc787" height="29" rx="2" width="60" y="38"/><path d="m15.4404 48.218h-4.14v-1.908h10.602v1.908h-4.14v10.782h-2.322zm19.697 10.782h-2.7l-3.438-4.752-3.456 4.752h-2.7l4.842-6.462-4.662-6.228h2.7l3.276 4.554 3.294-4.554h2.7l-4.68 6.246zm5.0952-10.782h-4.14v-1.908h10.602v1.908h-4.14v10.782h-2.322z" fill="#fff"/><path d="m49.6774 14.8571v-14.8571l20.3226 20.5714h-14.6774c-3.3871 0-5.6452-2.2857-5.6452-5.7143z" fill="#d7d9e0"/></g></svg>