<svg fill="none" height="80" viewBox="0 0 70 80" width="70" xmlns="http://www.w3.org/2000/svg" xmlns:xlink="http://www.w3.org/1999/xlink"><clipPath id="a"><path d="m0 0h70v80h-70z"/></clipPath><g clip-path="url(#a)"><path d="m10.1613 4c0-2.20914 1.7909-4 4-4h35.5161l20.3226 20.5714v55.4286c0 2.2091-1.7909 4-4 4h-51.8387c-2.2091 0-4-1.7909-4-4z" fill="#f3f4f7"/><rect fill="#2fc787" height="29" rx="2" width="60" y="38"/><path d="m17.4503 46.31v12.69h-2.268v-5.508h-6.49803v5.508h-2.286v-12.69h2.286v5.31h6.49803v-5.31zm5.7172 1.908h-4.14v-1.908h10.602v1.908h-4.14v10.782h-2.322zm20.4351-1.908v12.69h-2.052v-8.388l-3.348 6.336h-1.548l-3.366-6.246.018 8.298h-2.052v-12.69h1.836l4.356 8.298 4.338-8.298zm2.7508 0h2.322v10.782h5.922v1.908h-8.244z" fill="#fff"/><path d="m49.6774 14.8571v-14.8571l20.3226 20.5714h-14.6774c-3.3871 0-5.6452-2.2857-5.6452-5.7143z" fill="#d7d9e0"/></g></svg>