<svg fill="none" height="80" viewBox="0 0 70 80" width="70" xmlns="http://www.w3.org/2000/svg" xmlns:xlink="http://www.w3.org/1999/xlink"><clipPath id="a"><path d="m0 0h70v80h-70z"/></clipPath><g clip-path="url(#a)"><path d="m10.1613 4c0-2.20914 1.7908-4 4-4h35.5161l20.3226 20.5714v55.4286c0 2.2091-1.7909 4-4 4h-51.8387c-2.2092 0-4-1.7909-4-4z" fill="#f3f4f7"/><rect fill="#2fc787" height="29" rx="2" width="60" y="38"/><path d="m11.4696 46.31h4.68c2.076 0 3.684.558 4.824 1.674 1.152 1.104 1.728 2.658 1.728 4.662s-.576 3.564-1.728 4.68c-1.14 1.116-2.748 1.674-4.824 1.674h-4.68zm4.536 10.8c2.916 0 4.374-1.488 4.374-4.464 0-2.964-1.458-4.446-4.374-4.446h-2.214v8.91zm14.6863 2.052c-1.236 0-2.31-.264-3.222-.792-.9-.528-1.596-1.284-2.088-2.268s-.738-2.136-.738-3.456.24-2.466.72-3.438c.492-.984 1.194-1.74 2.106-2.268s1.986-.792 3.222-.792 2.304.264 3.204.792c.912.528 1.608 1.284 2.088 2.268.492.972.738 2.118.738 3.438s-.246 2.472-.738 3.456-1.194 1.74-2.106 2.268c-.9.528-1.962.792-3.186.792zm0-1.854c1.164 0 2.07-.402 2.718-1.206.66-.804.99-1.956.99-3.456s-.33-2.646-.99-3.438c-.648-.804-1.554-1.206-2.718-1.206-1.176 0-2.094.402-2.754 1.206-.648.792-.972 1.938-.972 3.438s.324 2.652.972 3.456c.66.804 1.578 1.206 2.754 1.206zm14.1353 1.854c-1.248 0-2.34-.264-3.276-.792-.924-.54-1.638-1.302-2.142-2.286-.492-.984-.738-2.13-.738-3.438s.246-2.448.738-3.42c.504-.984 1.218-1.74 2.142-2.268.936-.54 2.028-.81 3.276-.81.852 0 1.656.132 2.412.396s1.392.636 1.908 1.116l-.774 1.692c-.576-.456-1.146-.786-1.71-.99-.564-.216-1.164-.324-1.8-.324-1.224 0-2.172.396-2.844 1.188-.66.792-.99 1.932-.99 3.42 0 1.5.33 2.646.99 3.438.672.792 1.62 1.188 2.844 1.188.636 0 1.236-.102 1.8-.306.564-.216 1.134-.552 1.71-1.008l.774 1.692c-.516.48-1.152.852-1.908 1.116s-1.56.396-2.412.396z" fill="#fff"/><path d="m49.6774 14.8571v-14.8571l20.3226 20.5714h-14.6774c-3.3871 0-5.6452-2.2857-5.6452-5.7143z" fill="#d7d9e0"/></g></svg>