<svg fill="none" height="80" viewBox="0 0 70 80" width="70" xmlns="http://www.w3.org/2000/svg" xmlns:xlink="http://www.w3.org/1999/xlink"><clipPath id="a"><path d="m0 0h70v80h-70z"/></clipPath><g clip-path="url(#a)"><path d="m10.1613 4c0-2.20914 1.7909-4 4-4h35.5161l20.3226 20.5714v55.4286c0 2.2091-1.7909 4-4 4h-51.8387c-2.2092 0-4-1.7909-4-4z" fill="#f3f4f7"/><path d="m49.6774 14.8571v-14.8571l20.3226 20.5714h-14.6774c-3.3871 0-5.6452-2.2857-5.6452-5.7143z" fill="#d7d9e0"/><rect fill="#32bfc8" height="29" rx="2" width="60" y="38"/><path d="m21.481 59h-2.52l-2.178-4.05c-.204-.384-.456-.654-.756-.81s-.678-.234-1.134-.234h-1.764v5.094h-2.286v-12.69h5.616c1.44 0 2.532.324 3.276.972.756.636 1.134 1.56 1.134 2.772 0 .972-.276 1.776-.828 2.412-.54.624-1.308 1.032-2.304 1.224.672.18 1.212.654 1.62 1.422zm-5.346-6.876c.876 0 1.518-.162 1.926-.486.408-.336.612-.846.612-1.53 0-.696-.204-1.2-.612-1.512-.408-.324-1.05-.486-1.926-.486h-3.024v4.014zm16.407 3.906h-6.174l-1.278 2.97h-2.34l5.742-12.69h1.89l5.742 12.69h-2.304zm-.774-1.8-2.322-5.4-2.322 5.4zm17.2474 4.77h-2.52l-2.178-4.05c-.204-.384-.456-.654-.756-.81s-.678-.234-1.134-.234h-1.764v5.094h-2.286v-12.69h5.616c1.44 0 2.532.324 3.276.972.756.636 1.134 1.56 1.134 2.772 0 .972-.276 1.776-.828 2.412-.54.624-1.308 1.032-2.304 1.224.672.18 1.212.654 1.62 1.422zm-5.346-6.876c.876 0 1.518-.162 1.926-.486.408-.336.612-.846.612-1.53 0-.696-.204-1.2-.612-1.512-.408-.324-1.05-.486-1.926-.486h-3.024v4.014z" fill="#fff"/></g></svg>