<svg fill="none" height="80" viewBox="0 0 70 80" width="70" xmlns="http://www.w3.org/2000/svg" xmlns:xlink="http://www.w3.org/1999/xlink"><clipPath id="a"><path d="m0 0h70v80h-70z"/></clipPath><g clip-path="url(#a)"><path d="m10.1613 4c0-2.20914 1.7908-4 4-4h35.5161l20.3226 20.5714v55.4286c0 2.2091-1.7909 4-4 4h-51.8387c-2.2092 0-4-1.7909-4-4z" fill="#f3f4f7"/><rect fill="#2fc787" height="29" rx="2" width="60" y="38"/><path d="m10.6946 46.31h5.544c1.356 0 2.412.342 3.168 1.026.756.672 1.134 1.62 1.134 2.844s-.378 2.178-1.134 2.862-1.812 1.026-3.168 1.026h-3.222v4.932h-2.322zm5.256 5.976c1.596 0 2.394-.696 2.394-2.088 0-.708-.198-1.23-.594-1.566-.396-.348-.996-.522-1.8-.522h-2.934v4.176zm18.5788-5.976v12.69h-2.268v-5.508h-6.498v5.508h-2.286v-12.69h2.286v5.31h6.498v-5.31zm3.6292 0h5.544c1.356 0 2.412.342 3.168 1.026.756.672 1.134 1.62 1.134 2.844s-.378 2.178-1.134 2.862-1.812 1.026-3.168 1.026h-3.222v4.932h-2.322zm5.256 5.976c1.596 0 2.394-.696 2.394-2.088 0-.708-.198-1.23-.594-1.566-.396-.348-.996-.522-1.8-.522h-2.934v4.176z" fill="#fff"/><path d="m49.6774 14.8571v-14.8571l20.3226 20.5714h-14.6774c-3.3871 0-5.6452-2.2857-5.6452-5.7143z" fill="#d7d9e0"/></g></svg>