<svg height="31" viewBox="0 0 130 31" width="130" xmlns="http://www.w3.org/2000/svg"><g fill="none" fill-rule="evenodd"><path d="m25.93 4.45a15.19 15.19 0 1 0 -21.48 21.48 15.19 15.19 0 0 0 21.48-21.48zm-2.93 16.7v.01l-.77.76c-1 1-2.44 1.42-3.82 1.1-1.39-.38-2.7-.97-3.9-1.76a18.2 18.2 0 0 1 -5.39-5.28 14.18 14.18 0 0 1 -1.74-3.5 4.05 4.05 0 0 1 1.02-4.14l.9-.9a.64.64 0 0 1 .92 0l2.84 2.85c.25.25.26.65 0 .9l-1.67 1.68a1.36 1.36 0 0 0 -.14 1.77 19.54 19.54 0 0 0 4.63 4.55c.55.38 1.28.31 1.75-.16l1.62-1.64a.64.64 0 0 1 .9 0h.01l2.84 2.86c.25.25.25.66 0 .9z" fill="#3f7ad7" fill-rule="nonzero"/><text fill="#fff" font-family="Arial-Black, Arial Black" font-size="17.5" font-weight="700"><tspan x="38.17" y="21.91">WebCalls</tspan></text></g></svg>