<svg fill="none" height="16" viewBox="0 0 16 16" width="16" xmlns="http://www.w3.org/2000/svg"><path d="m13.0688 5.5375c-.1688-.05625-.3375-.10938-.5063-.15938.0281-.11562.0531-.23125.0781-.34687.3844-1.8625.1313-3.35938-.7219-3.85313-.8218-.471872-2.16245.01875-3.5187 1.2-.13438.11563-.26563.2375-.39063.35938-.08437-.08125-.17187-.1625-.25937-.24063-1.42188-1.2625-2.84687-1.793747-3.7-1.29687-.81875.475-1.0625 1.88437-.71875 3.64687.03437.175.07188.34688.11563.52188-.2.05625-.39688.11875-.58126.18437-1.66875.57813-2.86562 1.49063-2.86562 2.43438 0 .975 1.275 1.95312 3.00938 2.5469.14062.0468.28125.0937.425.1343-.04688.1875-.0875.3719-.125.5625-.32813 1.7344-.07188 3.1094.74687 3.5813.84375.4875 2.2625-.0125 3.64375-1.2219.10937-.0969.21875-.1969.32812-.3031.1375.1344.28126.2625.425.3875 1.3375 1.15 2.65938 1.6156 3.47498 1.1437.8438-.4875 1.1188-1.9656.7625-3.7656-.0281-.1375-.0593-.2781-.0937-.4219.1-.0281.1969-.0593.2937-.0906 1.8032-.59685 3.1094-1.56248 3.1094-2.5531 0-.94688-1.2312-1.86563-2.9312-2.45zm-4.22818-2.65313c1.16248-1.0125 2.24688-1.40937 2.74068-1.125.5281.30313.7312 1.52813.3999 3.1375-.0218.10625-.0437.20938-.0718.3125-.6938-.15625-1.3969-.26875-2.10315-.33125-.40625-.58125-.85-1.1375-1.33125-1.65937.12188-.11563.24062-.225.36562-.33438zm-3.61562 6.725c.15937.27188.32188.54373.49375.80933-.4875-.0531-.97187-.1312-1.45-.2343.1375-.45003.30937-.91565.50937-1.39065.14375.275.29063.54687.44688.81562zm-.94688-3.75937c.45-.1.92813-.18125 1.425-.24375-.16562.25937-.32812.525-.48124.79375-.15313.26562-.30313.5375-.44376.8125-.19687-.46563-.3625-.92188-.5-1.3625zm.85626 2.15312c.20625-.43125.43124-.85312.66874-1.26875.2375-.41562.49376-.81875.76251-1.21562.46875-.03438.94687-.05313 1.43437-.05313s.96875.01875 1.43437.05313c.26563.39375.51876.79687.75943 1.20937.2406.4125.4656.83438.6781 1.2625-.2094.43125-.4344.85625-.675 1.275-.23753.41563-.49065.81878-.75627 1.21878-.46563.0343-.95001.05-1.44063.05s-.96563-.0157-1.425-.0438c-.27188-.3969-.52812-.8031-.76875-1.21873-.24062-.41562-.4625-.8375-.67187-1.26875zm5.64372 1.6c.1594-.275.3094-.55312.4563-.83437.2.45312.375.9125.5281 1.38435-.4844.1094-.975.1938-1.4688.25.1688-.2625.3282-.53123.4844-.79998zm.45-2.39062c-.1469-.275-.2969-.55-.4531-.81875-.1531-.26563-.3125-.52813-.4781-.7875.5031.0625.9843.14687 1.4343.25-.1437.4625-.3125.9125-.5031 1.35625zm-3.22185-3.51563c.32813.35625.6375.73125.925 1.11875-.61875-.02812-1.24062-.02812-1.85937 0 .30625-.40312.62187-.77812.93437-1.11875zm-3.625-1.91562c.525-.30625 1.69063.13125 2.91875 1.21875.07813.06875.15625.14375.2375.21875-.48438.52187-.93125 1.07812-1.34062 1.65937-.70625.0625-1.40625.17188-2.1.325-.04063-.15937-.07501-.32187-.10938-.48437-.29375-1.5125-.1-2.65313.39375-2.9375zm-.76563 8.23745c-.13125-.03745-.25937-.07808-.38749-.12183-.66563-.20937-1.42188-.54062-1.96876-.975-.31562-.21875-.52812-.55625-.587495-.93437 0-.57188.987495-1.30313 2.412495-1.8.17813-.0625.35938-.11875.54063-.17188.2125.67813.46875 1.34375.76562 1.9875-.3.65313-.55937 1.32813-.775 2.01558zm3.64376 3.0625c-.51563.4719-1.11251.8469-1.76251 1.1032-.34687.1656-.74687.1812-1.10312.0406-.49687-.2875-.70313-1.3906-.42188-2.875.03438-.175.07188-.35.11563-.5219.7.15 1.40625.2531 2.12187.3063.4125.5843.86563 1.1437 1.35 1.6687-.1.0969-.19999.1906-.29999.2781zm.76562-.7593c-.31875-.3438-.6375-.725-.94688-1.1344.30001.0125.60938.0187.92188.0187.32188 0 .6375-.0062.95-.0218-.2875.3968-.59688.775-.925 1.1375zm4.0844.9375c-.0281.3812-.2156.7375-.5156.9781-.4969.2875-1.5563-.0875-2.70005-1.0688-.13125-.1125-.2625-.2343-.39688-.3593.47813-.5282.91876-1.0875 1.31876-1.675.71567-.0594 1.42807-.1688 2.13127-.3282.0312.1282.0593.2563.0843.3813.1532.675.1782 1.3781.0782 2.0719zm.5687-3.3594c-.0875.02812-.175.05625-.2656.08125-.2187-.68125-.4875-1.34688-.7969-1.99375.3-.6375.5532-1.29375.7657-1.96563.1625.04688.3187.09688.4687.14688 1.4563.5 2.4781 1.24375 2.4781 1.8125 0 .6125-1.0906 1.40312-2.65 1.91875zm-4.6781-.46875c.79062 0 1.43125-.64063 1.43125-1.43125 0-.79063-.64063-1.43125-1.43125-1.43125s-1.43125.64062-1.43125 1.43125c0 .79062.64063 1.43125 1.43125 1.43125z" fill="#fff"/></svg>