<svg xmlns="http://www.w3.org/2000/svg" viewBox="0 0 130 31"><path d="M25.9 4.4c-5.9-6-15.5-6.1-21.5-.3s-6.1 15.5-.3 21.5l.3.3c6 5.9 15.6 5.7 21.5-.3 5.8-5.9 5.8-15.3 0-21.2zM23 21.2l-.8.8c-1 1-2.4 1.4-3.8 1.1-1.4-.4-2.7-1-3.9-1.8-2.1-1.4-4-3.2-5.4-5.3-.7-1.1-1.3-2.3-1.7-3.5-.5-1.5-.1-3.1 1-4.1l.9-.9c.2-.3.7-.3.9 0l2.8 2.8c.2.2.3.6 0 .9l-1.7 1.7c-.5.5-.5 1.2-.1 1.8 1.3 1.8 2.8 3.3 4.6 4.6.5.4 1.3.3 1.8-.2l1.6-1.6c.2-.2.7-.2.9 0l2.8 2.9c.4.1.4.5.1.8z" fill="#3f7ad7"/><path d="M38.2 9.4h3.7l1.3 7 1.9-7h3.7l1.9 7 1.3-7h3.7l-2.8 12.5h-3.8L46.9 14l-2.2 7.9h-3.8L38.2 9.4zM66.3 18.2h-7c.1.6.2 1 .5 1.2.3.4.8.6 1.3.6.3 0 .7-.1 1-.3.2-.1.4-.3.6-.6l3.4.3c-.5.9-1.2 1.6-1.9 2-.7.4-1.8.6-3.2.6-1.2 0-2.1-.2-2.8-.5-.7-.3-1.3-.9-1.7-1.6-.5-.7-.7-1.6-.7-2.6 0-1.4.5-2.6 1.4-3.4s2.2-1.3 3.8-1.3c1.3 0 2.3.2 3.1.6.8.4 1.3 1 1.7 1.7.4.7.6 1.7.6 2.9v.4zm-3.5-1.6c-.1-.7-.2-1.2-.5-1.4-.3-.3-.7-.4-1.2-.4-.6 0-1 .2-1.3.7-.2.3-.3.7-.4 1.2h3.4zM67.8 9.4h3.5v4.3c.3-.4.7-.6 1.2-.8.4-.2.9-.3 1.5-.3 1.1 0 2 .4 2.7 1.2.7.8 1.1 1.9 1.1 3.4 0 1-.2 1.9-.5 2.6-.3.8-.8 1.3-1.4 1.7s-1.2.6-1.9.6c-.6 0-1.2-.1-1.7-.4-.4-.2-.8-.6-1.2-1.2v1.3h-3.3V9.4zm3.5 7.9c0 .8.1 1.3.4 1.7.3.4.7.5 1.1.5.4 0 .8-.2 1-.5.3-.3.4-.9.4-1.7 0-.7-.1-1.2-.4-1.6s-.6-.5-1-.5c-.5 0-.9.2-1.2.5-.2.4-.3.9-.3 1.6zM88 16.8l3.4 1c-.2 1-.6 1.7-1.1 2.4-.5.6-1.1 1.1-1.8 1.4s-1.7.5-2.8.5c-1.4 0-2.5-.2-3.3-.6-.9-.4-1.6-1.1-2.2-2.1-.6-1-.9-2.3-.9-3.8 0-2.1.6-3.7 1.7-4.8 1.1-1.1 2.7-1.7 4.7-1.7 1.6 0 2.8.3 3.7 1 .9.6 1.6 1.6 2 2.9l-3.4.8c-.1-.4-.2-.7-.4-.8-.2-.3-.5-.5-.8-.7s-.7-.2-1.1-.2c-.9 0-1.5.4-2 1.1-.4.5-.5 1.3-.5 2.5 0 1.4.2 2.3.6 2.9s1 .8 1.8.8c.7 0 1.3-.2 1.7-.6s.5-1.2.7-2zM96.2 15.8l-3.3-.4c.1-.6.3-1 .5-1.4.2-.3.6-.6 1-.9.3-.2.8-.3 1.3-.4.6-.1 1.2-.1 1.8-.1 1 0 1.9.1 2.5.2.6.1 1.2.4 1.6.7.3.3.5.6.7 1.1.2.5.3.9.3 1.3v4c0 .4 0 .8.1 1s.2.6.4.9h-3.3c-.1-.2-.2-.4-.3-.5 0-.1-.1-.3-.1-.6-.5.4-.9.8-1.4.9-.6.3-1.3.4-2.1.4-1.1 0-1.9-.3-2.5-.8-.6-.5-.8-1.1-.8-1.9 0-.7.2-1.3.6-1.7s1.2-.8 2.2-1c1.3-.3 2.2-.4 2.5-.6.4-.1.8-.2 1.2-.4 0-.4-.1-.7-.3-.9-.2-.2-.5-.3-.9-.3-.6 0-1 .1-1.3.3-.1.4-.2.7-.4 1.1zm3 1.8c-.5.2-1 .3-1.5.5-.7.2-1.2.4-1.3.6-.2.2-.3.4-.3.6 0 .3.1.5.3.7s.5.3.8.3c.4 0 .7-.1 1.1-.3.3-.2.6-.4.7-.7.1-.3.2-.6.2-1.1v-.6zM104.8 9.4h3.5v12.5h-3.5V9.4zM110.7 9.4h3.5v12.5h-3.5V9.4zM115.8 19.4l3.5-.3c.1.4.3.7.6.9.3.2.6.3 1 .3.5 0 .8-.1 1.1-.3.2-.1.3-.3.3-.6 0-.2-.1-.4-.4-.6-.2-.1-.7-.2-1.5-.4-1.2-.2-2-.4-2.5-.6-.5-.2-.9-.5-1.2-.9s-.5-.9-.5-1.5.2-1.1.5-1.5c.3-.4.8-.8 1.4-1 .6-.2 1.4-.3 2.5-.3s1.9.1 2.4.2c.5.2.9.4 1.3.8s.6.8.9 1.4l-3.3.3c-.1-.3-.2-.5-.4-.6-.3-.2-.6-.3-1-.3s-.7.1-.9.2c-.2.1-.3.3-.3.5s.1.4.3.5c.2.1.7.2 1.5.3 1.2.1 2 .3 2.6.5.6.2 1 .6 1.3 1 .3.4.4.9.4 1.4 0 .5-.2 1-.5 1.5s-.8.9-1.5 1.2-1.6.4-2.8.4c-1.7 0-2.8-.2-3.5-.7-.7-.3-1.1-.9-1.3-1.8z"/></svg>