<svg width="60" height="59" viewBox="0 0 60 59" fill="none" xmlns="http://www.w3.org/2000/svg">
<g clip-path="url(#clip0)">
<path d="M14.3999 34.5791C19.4473 35.441 25.0025 35.8627 29.9999 35.8627C34.9973 35.8627 40.5525 35.441 45.5999 34.5791C45.3734 33.8727 45.1436 33.1662 44.868 32.4731C42.7091 27.0625 40.5325 20.1153 42.3308 13.8823H17.669C19.4668 20.1153 17.2907 27.0625 15.1318 32.4731C14.8567 33.1662 14.6264 33.8727 14.3999 34.5791ZM29.9999 24.0997L32.5838 26.6899L29.9999 29.28L27.416 26.6899L29.9999 24.0997Z" fill="#F3F3F3"/>
<path d="M2.6999 33.6227V31.7962C5.76157 33.7489 10.3538 35.0252 15.1912 35.8236C20.295 36.6659 25.7161 36.9831 29.9999 36.9831C34.2837 36.9831 39.7048 36.6659 44.8086 35.8236C49.646 35.0252 54.2382 33.7489 57.2999 31.7962V33.6227C57.2999 34.9996 56.5074 36.2483 55.0283 37.3608C53.5486 38.4737 51.4176 39.4204 48.8379 40.1864C43.6819 41.7174 36.8127 42.504 29.9999 42.504C23.1871 42.504 16.3179 41.7174 11.1619 40.1864C8.58222 39.4204 6.45123 38.4737 4.97147 37.3608C3.49236 36.2483 2.6999 34.9996 2.6999 33.6227Z" fill="#D7EA53" stroke="white" stroke-width="0.6"/>
<path d="M13.3115 41.647C20.4599 43.6481 28.7998 43.3823 28.7998 43.3823V55.5293H16.6051C12.1201 47.3261 13.383 42.2825 13.3115 41.647Z" fill="#F3F3F3"/>
<path d="M46.6885 41.647C39.5401 43.6481 31.2002 43.3823 31.2002 43.3823V55.5293H43.3949C47.8799 47.3261 46.617 42.2825 46.6885 41.647Z" fill="#F3F3F3"/>
<path d="M44.8188 28.7867C44.5389 27.8318 44.2815 27.2985 44.0837 26.8885C44.0264 26.7697 43.9741 26.6613 43.9276 26.556C43.7539 26.1618 43.6314 25.7559 43.6054 24.78C51.3638 26.3041 55.0192 27.9673 57.2843 30.6197C57.2519 30.9781 57.0907 31.2379 56.8281 31.4663C56.5114 31.7418 56.0585 31.9611 55.499 32.2058C55.4134 32.2432 55.3254 32.2811 55.2356 32.3198C54.758 32.5255 54.2285 32.7536 53.7225 33.0563C53.5712 32.5873 53.2135 32.194 52.7785 31.8654C52.1932 31.4234 51.3918 31.0386 50.5039 30.6878C49.6112 30.3352 48.6034 30.0064 47.5919 29.6851C47.4139 29.6286 47.2358 29.5723 47.0582 29.5162C46.2916 29.2738 45.5326 29.0339 44.8188 28.7867Z" fill="#C6D93F" stroke="white" stroke-width="0.8"/>
<path d="M15.2715 28.7867C15.5515 27.8318 15.8088 27.2985 16.0066 26.8885C16.064 26.7697 16.1163 26.6613 16.1627 26.556C16.3365 26.1618 16.4589 25.7559 16.485 24.78C8.72657 26.3041 5.07113 27.9673 2.806 30.6197C2.83848 30.9781 2.99961 31.2379 3.26226 31.4663C3.57894 31.7418 4.03179 31.9611 4.59129 32.2058C4.67693 32.2432 4.76491 32.2811 4.85472 32.3198C5.33237 32.5255 5.8618 32.7536 6.36783 33.0563C6.51913 32.5873 6.87687 32.194 7.31188 31.8654C7.8971 31.4234 8.69849 31.0386 9.58648 30.6878C10.4791 30.3352 11.487 30.0064 12.4984 29.6851C12.6764 29.6286 12.8545 29.5723 13.0322 29.5162C13.7987 29.2738 14.5578 29.0339 15.2715 28.7867Z" fill="#C6D93F" stroke="white" stroke-width="0.8"/>
<path d="M16.6739 12.9136L16.8196 13.4754H17.3999H42.5999H43.152L43.316 12.9482L46.916 1.37959L47.2188 0.406738H46.1999H14.3999H13.4306L13.6739 1.345L16.6739 12.9136Z" fill="#D7EA53" stroke="white" stroke-width="1.5"/>
</g>
<defs>
<clipPath id="clip0">
<rect width="60" height="59" fill="white"/>
</clipPath>
</defs>
</svg>
