<svg width="140" height="125" viewBox="0 0 140 125" fill="none" xmlns="http://www.w3.org/2000/svg">
<circle cx="60" cy="60" r="60" fill="#F3F3F3"/>
<path d="M69.9 60.0019L88.4618 41.4401C90.5127 39.3892 90.5127 36.0642 88.4618 34.0165L85.9873 31.542C83.9358 29.4905 80.6108 29.4905 78.5631 31.542L60.0019 50.1032L41.4401 31.5382C39.3892 29.4873 36.0642 29.4873 34.0165 31.5382L31.5382 34.0127C29.4873 36.0642 29.4873 39.3892 31.5382 41.4369L50.1032 60.0019L31.542 78.5631C29.4905 80.6146 29.4905 83.9396 31.542 85.9873L34.0165 88.4618C36.0674 90.5127 39.3924 90.5127 41.4401 88.4618L60.0019 69.9L78.5631 88.4618C80.6146 90.5127 83.9396 90.5127 85.9873 88.4618L88.4618 85.9873C90.5127 83.9358 90.5127 80.6108 88.4618 78.5631L69.9 60.0019Z" fill="white"/>
<path d="M131.25 79.5H130V72C130 62.0189 121.425 54 111 54C100.575 54 92 62.0189 92 72V79.5H90.75C86.5327 79.5 83 82.7529 83 86.875V116.625C83 120.747 86.5327 124 90.75 124H131.25C135.467 124 139 120.747 139 116.625V86.875C139 82.7529 135.467 79.5 131.25 79.5ZM100 72C100 66.3549 104.879 61.6668 111 61.6668C117.121 61.6668 122 66.3549 122 72V79.5H100V72Z" fill="#D7EA53" stroke="white" stroke-width="2"/>
<rect x="97" y="95" width="29" height="2" rx="1" fill="white"/>
<rect x="97" y="103" width="29" height="2" rx="1" fill="white"/>
<rect x="97" y="111" width="29" height="2" rx="1" fill="white"/>
</svg>
