<svg width="147" height="163" viewBox="0 0 147 163" fill="none" xmlns="http://www.w3.org/2000/svg">
<path d="M110.663 80.8777C115.606 72.3159 116.945 62.1412 114.387 52.5917C111.828 43.0423 105.58 34.9004 97.0186 29.9573C88.4568 25.0141 78.2821 23.6746 68.7326 26.2333C59.1832 28.7921 51.0413 35.0396 46.0982 43.6014C24.3536 81.264 1.99976 82.7057 1.99976 82.7057L98.8466 138.62C98.8466 138.62 88.9182 118.54 110.663 80.8777Z" fill="#F3F3F3" stroke="#F3F3F3" stroke-width="2" stroke-linecap="round" stroke-linejoin="round"/>
<path d="M106.364 84.0654L106.355 84.0485L106.345 84.032C104.482 80.8856 101.183 79 97.5317 79C93.8809 79 90.5812 80.8856 88.7184 84.032L88.7184 84.032L88.7152 84.0376C88.6998 84.064 88.6867 84.0884 88.6813 84.0984L88.6803 84.1003C88.6785 84.1036 88.6773 84.1058 88.6766 84.1072L88.671 84.1166L88.6634 84.1307L66.4428 125.181C64.5505 128.39 64.518 132.251 66.3547 135.492L66.355 135.493C68.1993 138.743 71.5344 140.689 75.2642 140.689H119.676C123.391 140.689 126.857 138.755 128.709 135.493L128.709 135.492C130.543 132.255 130.515 128.394 128.659 125.246L106.364 84.0654ZM94.8326 98.8635C94.8326 97.3628 96.0442 96.1521 97.5317 96.1521C99.0193 96.1521 100.231 97.3629 100.231 98.8635V113.709C100.231 115.21 99.0192 116.421 97.5317 116.421C96.0442 116.421 94.8326 115.21 94.8326 113.709V98.8635ZM97.5317 131.267C95.0274 131.267 92.9829 129.22 92.9829 126.699C92.9829 124.179 95.0273 122.132 97.5317 122.132C100.036 122.132 102.08 124.179 102.08 126.699C102.08 129.22 100.036 131.267 97.5317 131.267Z" fill="#D7EA53" stroke="white" stroke-width="2"/>
<path d="M54.0296 118.205L34.4672 107.021C34.4672 107.021 25.5989 124.998 27.2197 129.258C28.8405 133.518 34.0572 136.479 38.6319 135.51C43.2066 134.541 54.0296 118.205 54.0296 118.205Z" fill="#F3F3F3" stroke="#F3F3F3"/>
</svg>
