<svg viewBox="0 0 46.41 73.79" xmlns="http://www.w3.org/2000/svg"><g fill="#fff" transform="translate(-1.8 -1.89)"><path d="m10.6 6.71c-1.2 1.11-9.22 8.76-8.79 20.85a27.54 27.54 0 0 0 8.19 18.35 23.88 23.88 0 0 0 16.58 29.78 28.07 28.07 0 0 1 -11.68-13.93 27.35 27.35 0 0 1 -1.54-12.58 27 27 0 0 0 19.38 3.27 26.84 26.84 0 0 0 15.14-9.45c-9.21 5.93-20.62 6.52-29 1.35-11.28-6.99-15.75-23.54-8.28-37.64z"/><path d="m15.35 1.89a26.65 26.65 0 0 0 32.85 40.81 26.65 26.65 0 0 1 -14.2 6.16 26.44 26.44 0 0 1 -24-10.78 26.69 26.69 0 0 1 -2.09-27.33 25.83 25.83 0 0 1 7.44-8.86z"/><path d="m13.14 49a30.7 30.7 0 0 0 5.68 2.67 26.53 26.53 0 0 0 .67 13 29.39 29.39 0 0 0 7 10.92c-2-1.23-8.94-6-12-13.94a26.07 26.07 0 0 1 -1.35-12.65z"/><path d="m24.53 7.48a12.58 12.58 0 0 1 16 17.65c.12-.34 2.5-7.45-2.31-13.22a13.6 13.6 0 0 0 -13.69-4.43z"/><path d="m16.65 16.24a14 14 0 0 0 .63 14.76c3.83 5.47 10.24 5.8 11 5.82-.71-.11-7.68-1.28-11.12-7.89a15.49 15.49 0 0 1 -.51-12.69z"/></g></svg>