<svg width="53" height="61" viewBox="0 0 53 61" fill="none" xmlns="http://www.w3.org/2000/svg">
<path d="M39.8556 14.285C44.0338 14.7101 46.8413 17.1592 49.7155 20.6922C51.9472 23.512 53.0516 26.831 52.9981 30.557C52.8363 38.4824 49.1054 45.2168 44.2371 50.7048C36.4478 59.4855 31.4271 54.0964 30.6058 54.1971C25.4464 57.2487 23.0453 56.3232 17.9482 52.2015C16.8365 51.2938 16.27 49.5704 15.5297 48.6734C12.9711 45.5402 11.1406 42.0313 10.0837 38.2378C9.00978 34.5783 8.7858 31.7943 9.18478 29.2518C9.71953 25.8685 11.4014 22.6459 14.0528 20.2715C19.0511 14.7838 22.3297 14.285 28.6585 16.2803C29.6322 6.30245 33.5268 3.80792 33.5268 3.80792C35.4741 1.81222 42.7766 -4.17484 40.3424 4.80588C38.8819 10.7925 32.5523 16.2802 32.5523 16.2802C34.4965 15.7987 37.0563 14.285 39.2537 14.285C39.4339 14.285 39.1764 14.216 39.8556 14.285Z" fill="#F3F3F3"/>
<path d="M7.64195 21.9569L6.75607 9.22099C6.72095 8.70314 6.51505 8.32422 6.27407 8.32422C6.26918 8.32422 6.26333 8.32422 6.25747 8.32422C6.00964 8.34109 5.80767 8.75573 5.78819 9.28839C5.78819 9.28839 5.40768 22.7989 5.38134 23.481C5.35499 24.163 4.79397 24.163 4.76762 23.481L4.3208 9.28839C4.2993 8.7431 4.08856 8.32422 3.83491 8.32422C3.58122 8.32422 3.36952 8.7431 3.34903 9.28839L2.90312 23.481C2.87677 24.163 2.31575 24.163 2.2894 23.481L1.88159 9.28839C1.8611 8.7579 1.65913 8.34316 1.4113 8.32422C1.40544 8.32422 1.40055 8.32422 1.3957 8.32422C1.15473 8.32422 0.94883 8.70314 0.913706 9.22099L0.028788 21.9569C-0.231716 25.6892 1.31978 29.2595 2.90229 30.7478L1.5362 53.525C1.49133 54.8955 1.71379 56.2575 2.14795 57.2637C2.58114 58.2699 3.19486 58.8467 3.83294 58.8467H3.83683C4.47396 58.8467 5.08863 58.2699 5.52279 57.2636C5.95695 56.2574 6.1794 54.8954 6.13454 53.5249L5.01831 30.7478C6.60086 29.2595 7.90245 25.6892 7.64195 21.9569Z" fill="#D7EA53"/>
<path d="M19.1441 6.39655L19.1441 6.39655L19.1463 6.39822C19.206 6.44267 19.2501 6.52094 19.2495 6.61794H19.2495V6.62223V48.7829L19.2495 55.4491C19.2483 55.4584 19.2469 55.4693 19.2452 55.4818C19.2383 55.5324 19.2274 55.6084 19.2116 55.7055C19.18 55.9 19.1292 56.1769 19.053 56.5009C18.899 57.1562 18.649 57.9702 18.2656 58.679C17.8766 59.3981 17.4016 59.9149 16.8424 60.1312C16.3206 60.333 15.5556 60.3368 14.4168 59.6585C13.7053 59.2348 13.2817 58.3885 13.0527 57.3603C12.8318 56.3688 12.8261 55.3643 12.8259 54.7776L13.8727 41.6552L14.7773 34.3556L14.796 34.205L14.7546 34.0589C13.4552 29.4752 12.975 25.9908 12.8176 23.6658C12.7389 22.5031 12.741 21.6298 12.7618 21.0534C12.7722 20.7651 12.7873 20.5511 12.7994 20.4121C12.8055 20.3427 12.8108 20.292 12.8143 20.2602L12.8183 20.2266L12.8189 20.2215L12.819 20.221L12.8191 20.2206L12.8191 20.2205L12.8191 20.2201L12.823 20.192L12.8247 20.1623C13.1526 14.4345 14.732 10.7959 16.1979 8.60407C16.9326 7.50555 17.6438 6.76296 18.1656 6.29901C18.3594 6.12673 18.5271 5.99292 18.66 5.89365C18.6803 5.91704 18.7009 5.94113 18.7229 5.96682C18.7499 5.99847 18.7791 6.03254 18.8123 6.07068C18.8851 6.15441 19.0075 6.29412 19.1441 6.39655ZM18.9788 5.67592C18.9943 5.66706 18.9915 5.66933 18.9772 5.67683C18.9778 5.67647 18.9783 5.67617 18.9788 5.67592ZM19.9995 6.62223C20.0014 6.29231 19.8497 5.98676 19.5941 5.79656L19.9995 6.62223Z" fill="#D7EA53" stroke="white" stroke-width="1.5"/>
</svg>
