<svg width="40" height="51" viewBox="0 0 40 51" fill="none" xmlns="http://www.w3.org/2000/svg">
<rect width="40" height="51" rx="6" fill="#F3F3F3"/>
<rect x="21" y="38" width="14" height="1" rx="0.5" fill="#D7EA53"/>
<rect x="6" y="6" width="10" height="10" rx="2" fill="white"/>
<rect x="6" y="20" width="10" height="10" rx="2" fill="white"/>
<rect x="6" y="34" width="10" height="10" rx="2" fill="white"/>
<path d="M10.6804 27.9887C10.6136 28.0655 10.5224 28.1084 10.4277 28.1084C10.333 28.1084 10.2419 28.0655 10.1751 27.9887L8.15707 25.682C7.94764 25.4427 7.94764 25.0546 8.15707 24.8157L8.40975 24.5268C8.61924 24.2875 8.95844 24.2875 9.16786 24.5268L10.4277 25.9668L13.8321 22.076C14.0416 21.8366 14.3811 21.8366 14.5902 22.076L14.8429 22.3648C15.0523 22.6042 15.0523 22.9922 14.8429 23.2312L10.6804 27.9887Z" fill="#D7EA53"/>
<rect x="21" y="40" width="14" height="1" rx="0.5" fill="#D7EA53"/>
<rect x="21" y="10" width="14" height="1" rx="0.5" fill="#D7EA53"/>
<rect x="21" y="12" width="14" height="1" rx="0.5" fill="#D7EA53"/>
<rect x="21" y="24" width="14" height="1" rx="0.5" fill="#D7EA53"/>
<g clip-path="url(#clip0)">
<path d="M10.6804 41.9887C10.6136 42.0655 10.5224 42.1084 10.4277 42.1084C10.333 42.1084 10.2419 42.0655 10.1751 41.9887L8.15707 39.682C7.94764 39.4427 7.94764 39.0546 8.15707 38.8157L8.40975 38.5268C8.61924 38.2875 8.95844 38.2875 9.16786 38.5268L10.4277 39.9668L13.8321 36.076C14.0416 35.8366 14.3811 35.8366 14.5902 36.076L14.8429 36.3648C15.0523 36.6042 15.0523 36.9922 14.8429 37.2312L10.6804 41.9887Z" fill="#D7EA53"/>
</g>
<g clip-path="url(#clip1)">
<path d="M10.6804 13.9887C10.6136 14.0655 10.5224 14.1084 10.4277 14.1084C10.333 14.1084 10.2419 14.0655 10.1751 13.9887L8.15707 11.682C7.94764 11.4427 7.94764 11.0546 8.15707 10.8157L8.40975 10.5268C8.61924 10.2875 8.95844 10.2875 9.16786 10.5268L10.4277 11.9668L13.8321 8.07599C14.0416 7.83665 14.3811 7.83665 14.5902 8.07599L14.8429 8.36485C15.0523 8.60419 15.0523 8.99222 14.8429 9.23119L10.6804 13.9887Z" fill="#D7EA53"/>
</g>
<rect x="21" y="26" width="14" height="1" rx="0.5" fill="#D7EA53"/>
<defs>
<clipPath id="clip0">
<rect width="7" height="8" fill="white" transform="translate(8 35)"/>
</clipPath>
<clipPath id="clip1">
<rect width="7" height="8" fill="white" transform="translate(8 7)"/>
</clipPath>
</defs>
</svg>
