<svg fill="none" height="400" viewBox="0 0 1092 400" width="1092" xmlns="http://www.w3.org/2000/svg"><path d="m0 0h1092v400h-1092z" fill="#fff"/><path d="m0 0h1092v400h-1092z" fill="#f8f9fa"/><path d="m495.398 192.76h-5.88v-1.68h13.776v1.68h-5.904v15.24h-1.992zm15.856 3.264c2.8 0 4.2 1.544 4.2 4.632v7.344h-1.944v-7.224c0-1.088-.216-1.88-.648-2.376-.416-.496-1.088-.744-2.016-.744-1.072 0-1.928.328-2.568.984s-.96 1.544-.96 2.664v6.696h-1.944v-16.92h1.944v7.104c.384-.704.912-1.24 1.584-1.608.688-.368 1.472-.552 2.352-.552zm7.761.288h1.944v11.688h-1.944zm2.16-5.064v2.184h-2.352v-2.184zm10.042 6.456-1.272.12c-1.2.112-2.072.488-2.616 1.128-.528.64-.792 1.432-.792 2.376v6.672h-1.944v-11.688h1.896v2.04c.656-1.36 1.944-2.12 3.864-2.28l.696-.048zm11.971-6.624v16.92h-1.944v-2.136c-.352.736-.872 1.304-1.56 1.704-.672.4-1.464.6-2.376.6-1.024 0-1.928-.256-2.712-.768s-1.392-1.224-1.824-2.136c-.432-.928-.648-2-.648-3.216 0-1.2.216-2.256.648-3.168s1.04-1.616 1.824-2.112 1.688-.744 2.712-.744c.912 0 1.704.2 2.376.6.688.4 1.208.968 1.56 1.704v-7.248zm-5.496 15.48c1.136 0 2.008-.384 2.616-1.152.624-.784.936-1.888.936-3.312s-.312-2.52-.936-3.288c-.608-.768-1.48-1.152-2.616-1.152s-2.024.384-2.664 1.152c-.624.768-.936 1.848-.936 3.24 0 1.424.312 2.536.936 3.336.64.784 1.528 1.176 2.664 1.176zm20.948 1.632c-2.64 0-4.752-.712-6.336-2.136l.768-1.512c.832.704 1.68 1.208 2.544 1.512.88.304 1.896.456 3.048.456 1.36 0 2.408-.264 3.144-.792s1.104-1.272 1.104-2.232c0-.56-.176-1.016-.528-1.368s-.816-.632-1.392-.84-1.352-.424-2.328-.648c-1.312-.304-2.392-.624-3.24-.96-.832-.336-1.512-.816-2.04-1.44-.512-.624-.768-1.44-.768-2.448 0-.96.248-1.808.744-2.544.512-.752 1.232-1.328 2.16-1.728.944-.416 2.032-.624 3.264-.624 1.168 0 2.256.184 3.264.552 1.024.368 1.888.896 2.592 1.584l-.744 1.512c-.8-.688-1.616-1.184-2.448-1.488-.816-.32-1.704-.48-2.664-.48-1.312 0-2.344.28-3.096.84-.736.544-1.104 1.312-1.104 2.304 0 .848.328 1.488.984 1.92s1.648.8 2.976 1.104c1.456.352 2.6.68 3.432.984.832.288 1.52.728 2.064 1.32.56.592.84 1.384.84 2.376 0 .96-.256 1.8-.768 2.52-.496.72-1.216 1.28-2.16 1.68-.944.384-2.048.576-3.312.576zm9.148-17.112h1.944v16.92h-1.944zm5.578 5.232h1.944v11.688h-1.944zm2.16-5.064v2.184h-2.352v-2.184zm13.787-.168v16.92h-1.944v-2.136c-.352.736-.872 1.304-1.56 1.704-.672.4-1.464.6-2.376.6-1.024 0-1.928-.256-2.712-.768s-1.392-1.224-1.824-2.136c-.432-.928-.648-2-.648-3.216 0-1.2.216-2.256.648-3.168s1.04-1.616 1.824-2.112 1.688-.744 2.712-.744c.912 0 1.704.2 2.376.6.688.4 1.208.968 1.56 1.704v-7.248zm-5.496 15.48c1.136 0 2.008-.384 2.616-1.152.624-.784.936-1.888.936-3.312s-.312-2.52-.936-3.288c-.608-.768-1.48-1.152-2.616-1.152s-2.024.384-2.664 1.152c-.624.768-.936 1.848-.936 3.24 0 1.424.312 2.536.936 3.336.64.784 1.528 1.176 2.664 1.176zm18.888-4.104h-8.544c.064 1.36.432 2.392 1.104 3.096.672.688 1.624 1.032 2.856 1.032 1.36 0 2.608-.464 3.744-1.392l.648 1.416c-.512.48-1.168.864-1.968 1.152-.8.272-1.616.408-2.448.408-1.824 0-3.264-.536-4.32-1.608-1.04-1.072-1.56-2.552-1.56-4.44 0-1.2.232-2.256.696-3.168.464-.928 1.112-1.648 1.944-2.16.848-.512 1.808-.768 2.88-.768 1.552 0 2.768.512 3.648 1.536.88 1.008 1.32 2.4 1.32 4.176zm-4.944-4.92c-1.024 0-1.848.32-2.472.96-.608.64-.968 1.544-1.08 2.712h6.792c-.032-1.184-.328-2.088-.888-2.712-.56-.64-1.344-.96-2.352-.96z" fill="#d7d9db"/></svg>