<svg width="67" height="42" viewBox="0 0 67 42" fill="none" xmlns="http://www.w3.org/2000/svg">
<path d="M37.7816 29.3948C37.7816 31.8665 36.3933 34.3334 33.6891 36.2786C30.9887 38.2211 27.1318 39.5001 22.7576 39.5001C15.3979 39.5001 10.2229 38.0397 6.97557 35.9918C3.78598 33.9804 2.5 31.462 2.5 28.9914C2.5 26.2947 3.1899 24.4682 4.18178 23.1694C5.19215 21.8463 6.67928 20.8579 8.6175 20.1402C12.6065 18.6632 17.837 18.5542 22.7576 18.5542C27.402 18.5542 31.2083 19.3307 33.7849 21.0082C36.1776 22.566 37.7816 25.0714 37.7816 29.3948Z" stroke="#D7EA53" stroke-width="5"/>
<path d="M28.3794 20.3784H33.8723L36.6188 23.6217H28.3794V20.3784Z" fill="white"/>
<path d="M30.5779 29.1276V23.861H51.8146V29.1276C51.8146 32.1788 54.1416 34.8356 57.1759 34.8356H60.6383C63.6711 34.8356 65.9996 32.179 65.9996 29.1276V26.8842V26.8663V26.8486V26.8309V26.8133V26.7959V26.7785V26.7612V26.744V26.7268V26.7098V26.6928V26.676V26.6592V26.6425V26.6259V26.6094V26.5929V26.5766V26.5603V26.5441V26.528V26.512V26.496V26.4802V26.4644V26.4487V26.4331V26.4176V26.4021V26.3868V26.3715V26.3563V26.3411V26.3261V26.3111V26.2962V26.2814V26.2666V26.252V26.2374V26.2229V26.2085V26.1941V26.1798V26.1656V26.1515V26.1374V26.1234V26.1095V26.0957V26.0819V26.0683V26.0546V26.0411V26.0276V26.0142V26.0009V25.9876V25.9745V25.9613V25.9483V25.9353V25.9224V25.9096V25.8968V25.8841V25.8715V25.8589V25.8464V25.834V25.8216V25.8093V25.7971V25.7849V25.7728V25.7608V25.7488V25.7369V25.7251V25.7133V25.7016V25.6899V25.6783V25.6668V25.6553V25.6439V25.6326V25.6213V25.6101V25.5989V25.5878V25.5767V25.5658V25.5548V25.544V25.5332V25.5224V25.5117V25.5011V25.4905V25.48V25.4695V25.4591V25.4487V25.4384V25.4282V25.418V25.4079V25.3978V25.3878V25.3778V25.3679V25.358V25.3482V25.3384V25.3287V25.319V25.3094V25.2999V25.2903V25.2809V25.2715V25.2621V25.2528V25.2435V25.2343V25.2251V25.216V25.2069V25.1979V25.1889V25.18V25.1711V25.1623V25.1535V25.1447V25.136V25.1273V25.1187V25.1101V25.1016V25.0931V25.0847V25.0762V25.0679V25.0596V25.0513V25.043V25.0348V25.0267V25.0185V25.0105V25.0024V24.9944V24.9865V24.9785V24.9706V24.9628V24.955V24.9472V24.9394V24.9317V24.9241V24.9164V24.9088V24.9013V24.8937V24.8862V24.8788V24.8714V24.864V24.8566V24.8493V24.842V24.8347V24.8275V24.8203V24.8131V24.8059V24.7988V24.7918V24.7847V24.7777V24.7707V24.7637V24.7568V24.7499V24.743V24.7361V24.7293V24.7225V24.7157V24.709V24.7022V24.6955V24.6889V24.6822V24.6756V24.669V24.6624V24.6558V24.6493V24.6428V24.6363V24.6298V24.6234V24.617V24.6105V24.6042V24.5978V24.5915V24.5851V24.5788V24.5725V24.5663V24.56V24.5538V24.5476V24.5414V24.5352V24.529V24.5229V24.5167V24.5106V24.5045V24.4984V24.4923V24.4863V24.4802V24.4742V24.4682V24.4622V24.4562V24.4502V24.4442V24.4383V24.4323V24.4264V24.4204V24.4145V24.4086V24.4027V24.3968V24.391V24.3851V24.3792V24.3734V24.3675V24.3617V24.3558V24.35V24.3442V24.3384V24.3325V24.3267V24.3209V24.3151V24.3093V24.3035V24.2978V24.292V24.2862V24.2804V24.2746V24.2689V24.2631V24.2573V24.2515V24.2458V24.24V24.2342V24.2284V24.2227V24.2169V24.2111V24.2053V24.1995V24.1938V24.188V24.1822V24.1764V24.1706V24.1648V24.159V24.1532V24.1473V24.1415V24.1357V24.1299V24.124V24.1182V24.1123V24.1064V24.1006V24.0947V24.0888V24.0829V24.077V24.0711V24.0651V24.0592V24.0532V24.0473V24.0413V24.0353V24.0293V24.0233V24.0173V24.0113V24.0052V23.9992V23.9931V23.987V23.9809V23.9748V23.9686V23.9625V23.9563V23.9501V23.9439V23.9377V23.9315V23.9252V23.9189V23.9127V23.9064V23.9V23.8937V23.8873V23.8809V23.8745V23.8681V23.8616V23.8552V23.8487V23.8422V23.8356V23.8291V23.8225V23.8159V23.8093V23.8026V23.7959V23.7892V23.7825V23.7757V23.769V23.7622V23.7553V23.7485V23.7416V23.7347V23.7277V23.7208V23.7138V23.7067V23.6997V23.6926V23.6855V23.6783V23.6712V23.664V23.6567V23.6495V23.6421V23.6348V23.6275V23.6201V23.6126V23.6052V23.5977V23.5901V23.5826V23.575V23.5673V23.5597V23.5519V23.5442V23.5364V23.5286V23.5207V23.5129V23.5049V23.497V23.4889V23.4809V23.4728V23.4647V23.4565V23.4483V23.4401V23.4318V23.4235V23.4151V23.4067V23.3982V23.3897V23.3812V23.3726V23.364V23.3553V23.3466V23.3379V23.3291V23.3202V23.3113V23.3024V23.2934V23.2844V23.2753V23.2662V23.257V23.2478V23.2385V23.2292V23.2198V23.2104V23.2009V23.1914V23.1819V23.1722V23.1626V23.1528V23.1431V23.1333V23.1234V23.1135V23.1035V23.0934V23.0834V23.0732V23.063V23.0528V23.0425V23.0321V23.0217V23.0112V23.0007V22.9901V22.9795V22.9688V22.958V22.9472V22.9363V22.9254V22.9144V22.9034V22.8923V22.8811V22.8699V22.8586V22.8472V22.8358V22.8244V22.8128V22.8012V22.7896V22.7778V22.7661V22.7542V22.7423V22.7303V22.7183V22.7062V22.694V22.6818V22.6695V22.6571V22.6447V22.6322V22.6196V22.607V22.5942V22.5815V22.5686V22.5557V22.5427V22.5297V22.5166V22.5034V22.4901V22.4768V22.4634V22.4499V22.4364V22.4227V22.409V22.3953V22.3814V22.3675V22.3535V22.3395V22.3253V22.3111V22.2968V22.2825V22.268V22.2535V22.2389V22.2243V22.2095V22.1947V22.1798V22.1648V22.1498V22.1346V22.1194V22.1041V22.0888V22.0733V22.0578V22.0421V13.7707V13.7692C65.9966 11.651 65.9968 10.7942 65.997 9.78251C65.997 9.51708 65.9971 9.24098 65.9971 8.92864V6.68387C65.9971 3.62571 63.6637 1 60.6358 1H57.1746C54.1468 1 51.8134 3.62571 51.8134 6.68387V11.9733H30.5779V6.68387C30.5779 3.62571 28.2445 1 25.2167 1H21.7555C18.7276 1 16.3942 3.62571 16.3942 6.68387V8.92864L16.3943 11.4126L16.3945 13.7707V22.0421C16.3945 23.194 16.3943 23.8101 16.3942 24.3287C16.394 25.0139 16.3939 25.5288 16.3942 26.8842C16.3942 26.8842 16.3942 26.8843 16.3942 26.8844V29.1276C16.3942 32.1788 18.7212 34.8356 21.7555 34.8356H25.2167C28.2509 34.8356 30.5779 32.1788 30.5779 29.1276Z" fill="#F3F3F3" stroke="white" stroke-width="2"/>
</svg>
