<svg viewBox="0 0 35 35" xmlns="http://www.w3.org/2000/svg"><circle cx="17.5" cy="17.5" fill="#3579d1" r="17.5"/><g fill="#fff"><path d="m13.1 4.46a11.4 11.4 0 0 0 -3.58 8.54 11.22 11.22 0 0 0 3.34 7.47 9.73 9.73 0 0 0 6.58 12.08h.17a11.43 11.43 0 0 1 -4.76-5.67 11.14 11.14 0 0 1 -.63-5.12 10.77 10.77 0 0 0 14.06-2.52 11.19 11.19 0 0 1 -11.81.55c-4.59-2.84-6.41-9.58-3.37-15.33z"/><path d="m15 2.5a10.86 10.86 0 0 0 13.42 16.62 10.61 10.61 0 0 1 -15.56-1.88 10.87 10.87 0 0 1 -.86-11.13 10.52 10.52 0 0 1 3-3.61z"/><path d="m14.13 21.69a12.51 12.51 0 0 0 2.31 1.09 10.81 10.81 0 0 0 .27 5.3 12 12 0 0 0 2.85 4.45 12.44 12.44 0 0 1 -4.89-5.68 10.62 10.62 0 0 1 -.54-5.16z"/><path d="m18.77 4.78a5.12 5.12 0 0 1 6.52 7.22 5.86 5.86 0 0 0 -.94-5.39 5.54 5.54 0 0 0 -5.58-1.83z"/><path d="m15.56 8.35a5.7 5.7 0 0 0 .26 6 5.91 5.91 0 0 0 4.48 2.37 6.4 6.4 0 0 1 -4.53-3.21 6.31 6.31 0 0 1 -.21-5.16z"/></g></svg>