<svg width="51" height="51" viewBox="0 0 51 51" fill="none" xmlns="http://www.w3.org/2000/svg">
<g clip-path="url(#clip0)">
<path d="M15.6824 22.7214C18.0178 27.8754 23.0179 30.1189 25.4997 30.1189C27.1315 30.1189 29.8521 29.1482 32.1882 27.0188C31.334 27.0784 30.4211 27.1086 29.4455 27.1086C29.2166 27.1086 28.9765 27.1065 28.7198 27.1025C28.2281 27.4812 27.6189 27.6947 26.9867 27.6947H24.9082C23.3418 27.6947 22.0674 26.4204 22.0674 24.854C22.0674 23.2876 23.3418 22.0133 24.9082 22.0133H26.9867C27.7377 22.0133 28.4399 22.306 28.9608 22.8108C29.1339 22.8127 29.3045 22.8135 29.4719 22.8135C32.1552 22.8135 33.9235 22.5674 35.0803 22.2706C34.9302 21.9055 34.8484 21.506 34.8484 21.0889V13.8863C34.8484 13.1371 35.1266 12.4189 35.6074 11.864C35.3508 9.86653 34.885 8.34155 34.19 7.21662C32.7577 4.89846 29.9962 3.81885 25.4997 3.81885C21.7695 3.81885 19.1936 4.59319 17.625 6.18607C16.409 7.42088 15.7044 9.18281 15.375 11.8438C15.8667 12.4007 16.151 13.1263 16.151 13.8863V21.0889C16.1511 21.6882 15.9789 22.2475 15.6824 22.7214Z" fill="#F3F3F3"/>
<path d="M10.5716 22.7891H13.0651C14.0038 22.7891 14.7654 22.0277 14.7654 21.0886V13.8861C14.7654 13.2587 14.4246 12.712 13.9191 12.4174C14.4759 6.51965 16.7518 2.43276 25.4998 2.43276C30.5234 2.43276 33.6595 3.72148 35.3689 6.48806C36.3635 8.09798 36.842 10.1774 37.0655 12.4263C36.5681 12.7229 36.2341 13.2648 36.2341 13.886V21.0885C36.2341 21.8982 36.8006 22.5743 37.5584 22.7457C36.4593 23.4646 34.1837 24.1989 29.4718 24.1989C29.0902 24.1989 28.6924 24.194 28.278 24.1841C28.0355 23.7178 27.5489 23.3986 26.9868 23.3986H24.9084C24.105 23.3986 23.4534 24.0501 23.4534 24.8536C23.4534 25.6572 24.105 26.3086 24.9084 26.3086H26.9868C27.4724 26.3086 27.9014 26.0699 28.1655 25.7045C28.6031 25.7156 29.0316 25.7225 29.4456 25.7225C34.7568 25.7223 38.1331 24.8158 39.5005 23.0171C39.5587 22.9407 39.6118 22.8644 39.6602 22.7891H40.4283C41.3671 22.7891 42.1285 22.0277 42.1285 21.0886V13.8861C42.1285 12.9472 41.3672 12.1858 40.4283 12.1858H39.4904C39.2266 9.46873 38.6417 7.1557 37.4386 5.20904C35.273 1.70388 31.3675 0 25.4997 0C19.6315 0 15.7264 1.70388 13.5606 5.20918C12.3577 7.15583 11.7731 9.46859 11.5091 12.186H10.5715C9.63241 12.186 8.87109 12.9472 8.87109 13.8863V21.0888C8.87109 22.0277 9.63254 22.7891 10.5716 22.7891Z" fill="#D7EA53"/>
<path d="M46.0566 43.9687C45.4912 40.4535 44.3274 35.9256 41.9931 34.3168C40.4015 33.2191 34.8448 30.2502 32.472 28.9826L32.4221 28.956C32.1505 28.8109 31.8192 28.84 31.5771 29.03C30.3323 30.007 28.9696 30.6653 27.5269 30.9863C27.272 31.043 27.0626 31.2244 26.9699 31.4686L25.4998 35.3432L24.0297 31.4686C23.937 31.2243 23.7276 31.043 23.4726 30.9863C22.0299 30.6653 20.667 30.007 19.422 29.03C19.1801 28.8399 18.8486 28.8108 18.5772 28.956C16.2309 30.2095 10.6022 33.2407 9.01308 34.312C6.32493 36.123 5.15096 42.674 4.94296 43.9688C4.92231 44.0973 4.93423 44.2286 4.9776 44.3511C5.07377 44.6227 7.53951 51.0002 25.4996 51.0002C43.4595 51.0002 45.9255 44.6227 46.0218 44.3513C46.0653 44.2285 46.0772 44.097 46.0566 43.9687ZM37.6941 39.9321H30.5806V38.434H37.6941V39.9321Z" fill="#F3F3F3"/>
<rect x="29.8154" y="37.6616" width="7.84616" height="2.35384" fill="#F3F3F3"/>
</g>
<defs>
<clipPath id="clip0">
<rect width="51" height="51" fill="white"/>
</clipPath>
</defs>
</svg>
