<svg width="90" height="113" fill="none" xmlns="http://www.w3.org/2000/svg"><path d="M78.518 42.375H74.78V28.25C74.78 12.67 61.364 0 44.868 0 28.37 0 14.956 12.67 14.956 28.25v14.125h-3.74C5.037 42.375 0 47.125 0 52.969v49.437C0 108.25 5.035 113 11.217 113h67.301c6.182 0 11.217-4.75 11.217-10.594V52.969c0-5.844-5.035-10.594-11.217-10.594zM24.927 28.25c0-10.387 8.943-18.833 19.94-18.833 10.998 0 19.941 8.446 19.941 18.833v14.125H24.927V28.25z" fill="#ECECEC" fill-opacity=".8"/><rect x="20.829" y="64.149" width="48.191" height="3.324" rx="1.662" fill="#fff"/><rect x="20.829" y="77.444" width="48.191" height="3.324" rx="1.662" fill="#fff"/><rect x="20.829" y="90.738" width="48.191" height="3.324" rx="1.662" fill="#fff"/></svg>