<svg width="135" height="135" fill="none" xmlns="http://www.w3.org/2000/svg"><circle cx="67.5" cy="67.5" r="67.5" fill="#F3F3F3"/><path d="M67.5 66.702c8.04 0 14.558-7.992 14.558-17.851C82.058 38.992 79.918 31 67.5 31s-14.56 7.992-14.56 17.851c0 9.859 6.519 17.85 14.559 17.85zM40.003 93.958c-.003-.6-.005-.169 0 0zm54.993.47c.008-.165.002-1.142 0 0zm-.031-1.191c-.27-17.174-2.491-22.068-19.493-25.166 0 0-2.394 3.079-7.972 3.079s-7.972-3.079-7.972-3.079c-16.816 3.064-19.173 7.885-19.483 24.608-.026 1.365-.038 1.437-.042 1.279.001.297.002.846.002 1.804 0 0 4.048 8.238 27.495 8.238 23.447 0 27.495-8.238 27.495-8.238v-1.335c-.004.098-.013-.092-.03-1.19z" fill="#fff"/></svg>