<svg width="99" height="93" fill="none" xmlns="http://www.w3.org/2000/svg"><path d="M0 6a6 6 0 016-6h61.551a6 6 0 016 6v38.211c0 .51-.065 1.017-.193 1.51l-4.165 16.015c-.128.493-.193 1-.193 1.51v18.105a6 6 0 01-6 6H6a6 6 0 01-6-6V6z" fill="#F3F3F3"/><rect x="11.033" y="10.276" width="18.388" height="17.128" rx="2" fill="#fff"/><rect x="11.033" y="34.255" width="18.388" height="17.128" rx="2" fill="#fff"/><rect x="11.033" y="58.233" width="18.388" height="17.128" rx="2" fill="#fff"/><rect x="38.374" y="65.531" width="25.583" height="2.979" rx="1.489" fill="#fff"/><rect x="38.374" y="17.872" width="25.583" height="2.979" rx="1.489" fill="#fff"/><rect x="38.614" y="41.701" width="25.743" height="3.053" rx="1.527" fill="#fff"/><path d="M97.985 81.76L80.303 48.63c-1.334-2.286-3.692-3.652-6.305-3.652-2.613 0-4.97 1.366-6.305 3.653l-.028.052L50.04 81.708a7.493 7.493 0 00-.07 7.499c1.322 2.362 3.703 3.772 6.374 3.772h35.209c2.67 0 5.15-1.41 6.471-3.772 1.32-2.36 1.293-5.165-.04-7.447zm-26.92-21.612c0-1.649 1.314-2.985 2.933-2.985 1.62 0 2.933 1.337 2.933 2.985v11.938c0 1.648-1.313 2.985-2.933 2.985-1.62 0-2.933-1.337-2.933-2.985V60.148zm2.933 26.861c-2.426 0-4.399-2.008-4.399-4.477 0-2.468 1.973-4.477 4.4-4.477 2.425 0 4.398 2.009 4.398 4.477 0 2.469-1.973 4.477-4.399 4.477z" fill="#6A25FF"/><path d="M18.93 20.16l-3.046-3.044a1.249 1.249 0 10-1.768 1.767l4 4c.235.235.553.366.884.366h.002l.05-.001c.347-.014.671-.173.896-.435h0l6-7-7.019 4.348zm0 0l5.12-5.974h0a1.25 1.25 0 011.897 1.628L18.93 20.16zm0 48l-3.046-3.044a1.249 1.249 0 10-1.768 1.767l4 4c.235.235.553.366.884.366h.002l.05-.001c.347-.014.671-.173.896-.435h0l6-7-7.019 4.348zm0 0l5.12-5.974h0a1.25 1.25 0 011.897 1.628L18.93 68.16z" fill="#7BC05A" stroke="#7BC05A" stroke-width=".5"/><path d="M24.884 46.115L21.768 43l3.116-3.116a1.249 1.249 0 10-1.768-1.768L20 41.232l-3.116-3.117a1.249 1.249 0 10-1.768 1.768L18.233 43l-3.117 3.116a1.249 1.249 0 101.768 1.768L20 44.767l3.116 3.116a1.247 1.247 0 001.768 0 1.249 1.249 0 000-1.768z" fill="#F2856D" stroke="#F2856D" stroke-width=".5"/></svg>