<svg width="75" height="79" fill="none" xmlns="http://www.w3.org/2000/svg"><path d="M68.917 64.685c-.947-5.891-2.898-13.48-6.81-16.175-2.667-1.84-11.98-6.815-15.956-8.94l-.083-.044a1.3 1.3 0 00-1.416.124c-2.087 1.637-4.37 2.74-6.788 3.278a1.3 1.3 0 00-.933.809l-2.464 6.493-2.464-6.493a1.3 1.3 0 00-.933-.809c-2.418-.538-4.702-1.64-6.789-3.278a1.3 1.3 0 00-1.415-.124c-3.933 2.1-13.365 7.18-16.029 8.976C2.332 51.537.365 62.515.017 64.685a1.3 1.3 0 00.058.64c.16.456 4.293 11.144 34.392 11.144 30.098 0 34.23-10.688 34.392-11.143a1.3 1.3 0 00.058-.641zM54.903 57.92H42.982v-2.51h11.92v2.51z" fill="#F3F3F3"/><ellipse cx="34.867" cy="19.755" rx="17.828" ry="19.553" fill="#F3F3F3"/><circle cx="57.5" cy="61.5" r="17.5" fill="#7BC05A"/><path d="M65 55L54.687 67 50 61.545" stroke="#fff" stroke-width="4" stroke-linecap="round" stroke-linejoin="round"/></svg>