<svg width="76" height="91" fill="none" xmlns="http://www.w3.org/2000/svg"><path d="M68.917 74.685c-.947-5.891-2.898-13.48-6.81-16.175-2.667-1.84-11.98-6.815-15.956-8.94l-.083-.044a1.3 1.3 0 00-1.416.124c-2.087 1.637-4.37 2.74-6.788 3.278a1.3 1.3 0 00-.933.809l-2.464 6.493-2.464-6.493a1.3 1.3 0 00-.933-.809c-2.418-.538-4.702-1.64-6.789-3.278a1.3 1.3 0 00-1.415-.124c-3.933 2.1-13.365 7.18-16.029 8.976C2.332 61.537.365 72.515.017 74.685a1.3 1.3 0 00.058.64c.16.456 4.293 11.144 34.392 11.144 30.098 0 34.23-10.688 34.392-11.143a1.3 1.3 0 00.058-.641zM54.903 67.92H42.982v-2.51h11.92v2.51z" fill="#F3F3F3"/><ellipse cx="34.867" cy="29.755" rx="17.828" ry="19.553" fill="#F3F3F3"/><path d="M20.389 6.238c-1.793 5.64-3.137 14.315-3.137 14.315h34.506s-.896-8.675-3.137-14.315C46.381.598 43.691.165 40.107 1.9c-3.585 1.735-7.619 1.302-11.204 0C25.318.6 22.181.6 20.39 6.238z" fill="#F3F3F3" stroke="#F3F3F3"/><path d="M69.01 22.854c0 1.906-15.191 3.45-33.93 3.45-18.74 0-33.932-1.544-33.932-3.45 0-1.906 15.192-3.45 33.931-3.45 18.74 0 33.931 1.544 33.931 3.45z" fill="#F3F3F3"/><circle cx="58.5" cy="73.5" r="17.5" fill="#FD6949"/><path d="M65.68 80.88h0a1.4 1.4 0 000-1.928l-4.932-5.143 4.932-5.144s0 0 0 0 0 0 0 0a1.4 1.4 0 000-1.927v14.141zm0 0a1.32 1.32 0 01-.953.409m.953-.41l-.953.41m-7.732-7.48l-4.932 5.143s0 0 0 0a1.4 1.4 0 000 1.927l4.932-7.07zm0 0l-4.932-5.144a1.4 1.4 0 010-1.927 1.312 1.312 0 011.905 0l4.903 5.114 4.904-5.114s0 0 0 0a1.312 1.312 0 011.905 0l-8.685 7.07zm7.732 7.48c-.348 0-.693-.14-.952-.41m.952.41l-.952-.41m0 0l-4.904-5.114-4.903 5.114c-.259.27-.604.41-.953.41-.348 0-.693-.14-.952-.41h11.712z" fill="#fff" stroke="#fff"/></svg>