<svg width="99" height="93" fill="none" xmlns="http://www.w3.org/2000/svg"><rect y=".021" width="73.551" height="87.351" rx="6" fill="#F3F3F3"/><rect x="11.033" y="10.298" width="18.388" height="17.128" rx="2" fill="#fff"/><rect x="11.033" y="34.276" width="18.388" height="17.128" rx="2" fill="#fff"/><rect x="11.033" y="58.255" width="18.388" height="17.128" rx="2" fill="#fff"/><path d="M19.637 47.96a.636.636 0 01-.465.205.636.636 0 01-.465-.205l-3.71-3.95a1.097 1.097 0 010-1.485l.464-.494a.944.944 0 011.394 0l2.317 2.466 6.26-6.664a.944.944 0 011.394 0l.465.495c.385.41.385 1.074 0 1.483l-7.654 8.149z" fill="#fff"/><rect x="38.374" y="65.553" width="25.583" height="2.979" rx="1.489" fill="#fff"/><rect x="38.374" y="17.894" width="25.583" height="2.979" rx="1.489" fill="#fff"/><g clip-path="url(#clip0)"><path d="M18.658 71.938a.636.636 0 01-.465.204.636.636 0 01-.465-.204l-3.71-3.951a1.097 1.097 0 010-1.484l.464-.495a.944.944 0 011.395 0l2.316 2.466 6.26-6.664a.944.944 0 011.394 0l.465.495c.385.41.385 1.075 0 1.484l-7.654 8.148z" fill="#7BC05A"/></g><rect x="38.614" y="41.723" width="25.743" height="3.053" rx="1.527" fill="#fff"/><path d="M15.915 45.92a.466.466 0 000 .692m0-.692l2.939-2.738-.367-.341m-2.572 3.079l-.341-.366h0m.34.366l-.34-.367m.34 1.059l8.099-7.543a.553.553 0 00-.744 0l-3.305 3.08-3.306-3.08a.553.553 0 00-.743 0 .466.466 0 000 .693m0 6.85a.545.545 0 00.371.143.545.545 0 00.372-.143m-.743 0l4.049-3.08m-1.477-.691l.367-.342-2.94-2.737m2.573 3.079l-2.913-2.713m2.913 2.713l-2.913 2.712m.34-5.791l-.34.366m.34-.366l-.34.365a.966.966 0 010-1.424v1.425m8.78-1.425a.966.966 0 010 1.424s0 0 0 0l-2.913 2.714 2.912 2.712s0 0 0 0a.966.966 0 010 1.425v-8.275zm0 0a1.053 1.053 0 00-1.425 0l-2.965 2.762-2.965-2.762s0 0 0 0a1.053 1.053 0 00-1.425 0h8.78zm-8.78 1.425l8.78 6.85a1.044 1.044 0 01-.713.277c-.251 0-.51-.089-.712-.277l-2.965-2.762m-4.39 1.337a.966.966 0 000 1.425h0c.203.188.462.277.712.277.251 0 .51-.089.713-.277l-.34-.366m0 0l.34.366 2.965-2.762m-3.306 2.396l3.306-3.08m0 .684l-.341-.317.34-.366m0 .683l.341-.317-.34-.366" fill="#F2856D" stroke="#F2856D"/><path d="M97.985 81.781L80.303 48.652C78.969 46.366 76.611 45 73.998 45c-2.613 0-4.97 1.366-6.305 3.652l-.028.053L50.04 81.728a7.493 7.493 0 00-.07 7.5C51.293 91.59 53.674 93 56.345 93h35.209c2.67 0 5.15-1.41 6.471-3.772 1.32-2.36 1.293-5.164-.04-7.447zM71.065 60.17c0-1.648 1.314-2.984 2.933-2.984 1.62 0 2.933 1.336 2.933 2.984v11.939c0 1.648-1.313 2.984-2.933 2.984-1.62 0-2.933-1.336-2.933-2.984v-11.94zm2.933 26.862c-2.425 0-4.399-2.008-4.399-4.477 0-2.469 1.973-4.477 4.4-4.477 2.425 0 4.398 2.008 4.398 4.477 0 2.468-1.973 4.477-4.399 4.477z" fill="#6A25FF"/><defs><clipPath id="clip0"><path fill="#fff" transform="translate(13.729 59.968)" d="M0 0h12.871v13.702H0z"/></clipPath></defs></svg>