<svg width="114" height="124" fill="none" xmlns="http://www.w3.org/2000/svg"><path fill="#F3F3F3" d="M57.967 88.733h17.91v5.373h-17.91z"/><path d="M93.87 101.365c-1.29-8.024-3.947-18.36-9.275-22.032-3.633-2.506-16.317-9.283-21.733-12.176l-.114-.06a1.772 1.772 0 00-1.929.168c-2.841 2.23-5.952 3.733-9.245 4.466a1.772 1.772 0 00-1.272 1.1l-3.355 8.845-3.356-8.845a1.771 1.771 0 00-1.272-1.1c-3.293-.733-6.404-2.236-9.246-4.466a1.77 1.77 0 00-1.928-.169c-5.356 2.861-18.204 9.78-21.832 12.226C3.177 83.456.497 98.41.023 101.365c-.048.293-.02.593.079.873.22.62 5.848 15.177 46.844 15.177s46.626-14.557 46.845-15.177c.1-.28.127-.58.08-.873zm-19.088-9.214H58.545v-3.42h16.237v3.42z" fill="#F3F3F3"/><ellipse cx="47.49" cy="40.166" rx="24.283" ry="26.633" fill="#F3F3F3"/><path d="M27.773 8.135C25.33 15.816 23.5 27.633 23.5 27.633h47s-1.22-11.817-4.273-19.498C63.175.454 59.513-.137 54.63 2.226 49.747 4.59 44.253 4 39.37 2.226 34.487.454 30.214.454 27.773 8.135z" fill="#F3F3F3" stroke="#F3F3F3"/><path d="M94 30.766c0 2.596-20.692 4.7-46.217 4.7s-46.217-2.104-46.217-4.7c0-2.595 20.692-4.7 46.217-4.7S94 28.171 94 30.766z" fill="#F3F3F3"/><path d="M106.335 79.625h-2.35V70.75c0-9.79-8.429-17.75-18.794-17.75s-18.794 7.96-18.794 17.75v8.875h-2.35c-3.883 0-7.047 2.985-7.047 6.656v31.063c0 3.671 3.164 6.656 7.048 6.656h42.287c3.884 0 7.047-2.985 7.047-6.656V86.281c0-3.671-3.163-6.656-7.047-6.656zM72.662 70.75c0-6.526 5.619-11.833 12.53-11.833 6.91 0 12.528 5.307 12.528 11.833v8.875H72.662V70.75z" fill="#6A25FF"/><rect x="70.088" y="93.307" width="30.279" height="2.088" rx="1.044" fill="#fff"/><rect x="70.088" y="101.659" width="30.279" height="2.088" rx="1.044" fill="#fff"/><rect x="70.088" y="110.013" width="30.279" height="2.088" rx="1.044" fill="#fff"/></svg>