<svg width="112" height="97" fill="none" xmlns="http://www.w3.org/2000/svg"><path d="M0 48.465V96.93h111.557V0H0v48.465zm19.958-34.497v6.471H8.454V7.497h11.504v6.471zm83.145 0v6.471H91.599V7.497h11.504v6.471zm-83.145 17.27v6.427H8.454V24.813h11.504v6.426zm83.145 0v6.427H91.599V24.813h11.504v6.426zm-42.94 5.892c9.848 5.819 17.883 10.603 17.857 10.639-.07.062-36.177 21.403-36.334 21.465-.087.036-.114-4.302-.114-21.519V26.142l.34.206c.183.116 8.393 4.962 18.25 10.782zM19.957 48.465v6.426H8.454V42.04h11.504v6.426zm83.145 0v6.426H91.599V42.04h11.504v6.426zM19.958 65.69v6.426H8.454V59.265h11.504v6.426zm83.145 0v6.426H91.599V59.265h11.504v6.426zM19.958 82.96v6.471H8.454v-12.94h11.504v6.47zm83.145 0v6.471H91.599v-12.94h11.504v6.47z" fill="#F3F3F3"/></svg>