<svg width="94" height="118" fill="none" xmlns="http://www.w3.org/2000/svg"><path fill="#F3F3F3" d="M57.967 88.733h17.91v5.373h-17.91z"/><path d="M93.87 101.365c-1.29-8.024-3.947-18.36-9.275-22.032-3.633-2.506-16.317-9.283-21.733-12.176l-.114-.061a1.772 1.772 0 00-1.929.169c-2.841 2.23-5.952 3.733-9.245 4.465-.582.13-1.06.544-1.272 1.101l-3.355 8.845-3.356-8.845a1.771 1.771 0 00-1.272-1.1c-3.293-.733-6.404-2.236-9.246-4.466a1.77 1.77 0 00-1.928-.17c-5.356 2.862-18.204 9.781-21.832 12.227C3.177 83.456.497 98.409.023 101.365c-.048.293-.02.593.079.873.22.62 5.848 15.177 46.844 15.177s46.626-14.557 46.845-15.177c.1-.28.127-.58.08-.873zM74.783 92.15H58.545v-3.42h16.237v3.42z" fill="#F3F3F3"/><ellipse cx="47.489" cy="40.167" rx="24.283" ry="26.633" fill="#F3F3F3"/><path d="M27.773 8.135C25.33 15.816 23.5 27.633 23.5 27.633h47s-1.22-11.817-4.273-19.498C63.175.454 59.513-.137 54.63 2.226 49.747 4.59 44.253 4 39.37 2.226 34.487.454 30.214.454 27.773 8.135z" fill="#F3F3F3" stroke="#F3F3F3"/><path d="M94 30.767c0 2.595-20.692 4.7-46.216 4.7-25.525 0-46.217-2.105-46.217-4.7 0-2.596 20.692-4.7 46.217-4.7 25.524 0 46.216 2.104 46.216 4.7z" fill="#F3F3F3"/></svg>