<svg width="147" height="163" fill="none" xmlns="http://www.w3.org/2000/svg"><path d="M110.663 80.878A37.276 37.276 0 1046.099 43.6C24.354 81.264 2 82.706 2 82.706l96.847 55.914s-9.928-20.08 11.816-57.742z" fill="#F3F3F3" stroke="#F3F3F3" stroke-width="2" stroke-linecap="round" stroke-linejoin="round"/><path d="M106.364 84.065l-.009-.016-.01-.017C104.482 80.886 101.183 79 97.532 79c-3.651 0-6.95 1.886-8.814 5.032h0l-.003.006-.034.06v.002a.273.273 0 00-.004.007l-.006.01-.008.014-22.22 41.05c-1.892 3.209-1.925 7.07-.088 10.311v.001c1.844 3.25 5.18 5.196 8.91 5.196h44.411c3.715 0 7.181-1.934 9.033-5.196v-.001c1.834-3.237 1.806-7.098-.05-10.246l-22.295-41.18zM94.833 98.864a2.705 2.705 0 012.699-2.712 2.705 2.705 0 012.699 2.712v14.845a2.706 2.706 0 01-2.7 2.712 2.706 2.706 0 01-2.698-2.712V98.863zm2.699 32.403c-2.505 0-4.55-2.047-4.55-4.568 0-2.52 2.045-4.567 4.55-4.567 2.504 0 4.548 2.047 4.548 4.567 0 2.521-2.044 4.568-4.548 4.568z" fill="#6A25FF" stroke="#fff" stroke-width="2"/><path d="M54.03 118.205l-19.562-11.184s-8.868 17.977-7.247 22.237c1.62 4.26 6.837 7.221 11.412 6.252 4.575-.969 15.398-17.305 15.398-17.305z" fill="#F3F3F3" stroke="#F3F3F3"/></svg>