<svg width="137" height="129" fill="none" xmlns="http://www.w3.org/2000/svg"><circle cx="60" cy="60" r="60" fill="#F3F3F3"/><path d="M69.9 60.002L88.462 41.44a5.248 5.248 0 000-7.423l-2.475-2.475a5.247 5.247 0 00-7.424 0L60.002 50.103 41.44 31.538a5.248 5.248 0 00-7.423 0l-2.479 2.475a5.248 5.248 0 000 7.424l18.565 18.565-18.561 18.561a5.247 5.247 0 000 7.424l2.474 2.475a5.248 5.248 0 007.424 0L60.002 69.9l18.561 18.562a5.248 5.248 0 007.424 0l2.475-2.475a5.248 5.248 0 000-7.424L69.9 60.002z" fill="#fff"/><path d="M129.335 84.625h-2.35V75.75c0-9.79-8.429-17.75-18.794-17.75s-18.794 7.96-18.794 17.75v8.875h-2.35c-3.883 0-7.047 2.985-7.047 6.656v31.063c0 3.671 3.164 6.656 7.048 6.656h42.287c3.884 0 7.047-2.985 7.047-6.656V91.281c0-3.671-3.163-6.656-7.047-6.656zM95.662 75.75c0-6.526 5.619-11.833 12.529-11.833s12.529 5.307 12.529 11.833v8.875H95.662V75.75z" fill="#6A25FF"/><rect x="93.088" y="98.307" width="30.279" height="2.088" rx="1.044" fill="#fff"/><rect x="93.088" y="106.659" width="30.279" height="2.088" rx="1.044" fill="#fff"/><rect x="93.088" y="115.013" width="30.279" height="2.088" rx="1.044" fill="#fff"/></svg>