<svg width="134" height="111" fill="none" xmlns="http://www.w3.org/2000/svg"><path d="M0 48.465V96.93h111.557V0H0v48.465zm19.958-34.497v6.471H8.454V7.497h11.504v6.471zm83.145 0v6.471H91.599V7.497h11.504v6.471zm-83.145 17.27v6.427H8.454V24.813h11.504v6.426zm83.145 0v6.427H91.599V24.813h11.504v6.426zm-42.94 5.892c9.848 5.819 17.883 10.603 17.857 10.639-.07.062-36.177 21.403-36.334 21.465-.087.036-.114-4.302-.114-21.519V26.142l.34.206c.183.116 8.393 4.962 18.25 10.782zM19.957 48.465v6.426H8.454V42.04h11.504v6.426zm83.145 0v6.426H91.599V42.04h11.504v6.426zM19.958 65.69v6.426H8.454V59.265h11.504v6.426zm83.145 0v6.426H91.599V59.265h11.504v6.426zM19.958 82.96v6.471H8.454v-12.94h11.504v6.47zm83.145 0v6.471H91.599v-12.94h11.504v6.47z" fill="#F3F3F3"/><path d="M126.335 66.625h-2.35V57.75c0-9.79-8.429-17.75-18.794-17.75s-18.794 7.96-18.794 17.75v8.875h-2.35c-3.883 0-7.047 2.985-7.047 6.656v31.063c0 3.671 3.164 6.656 7.048 6.656h42.287c3.884 0 7.047-2.985 7.047-6.656V73.281c0-3.671-3.163-6.656-7.047-6.656zM92.662 57.75c0-6.526 5.619-11.833 12.529-11.833s12.529 5.307 12.529 11.833v8.875H92.662V57.75z" fill="#6A25FF"/><rect x="90.088" y="80.307" width="30.279" height="2.088" rx="1.044" fill="#fff"/><rect x="90.088" y="88.659" width="30.279" height="2.088" rx="1.044" fill="#fff"/><rect x="90.088" y="97.013" width="30.279" height="2.088" rx="1.044" fill="#fff"/></svg>