<svg width="120" height="120" fill="none" xmlns="http://www.w3.org/2000/svg"><circle cx="60" cy="60" r="60" fill="#F3F3F3"/><path d="M69.9 60.002L88.462 41.44a5.248 5.248 0 000-7.423l-2.475-2.475a5.247 5.247 0 00-7.424 0L60.002 50.103 41.44 31.538a5.248 5.248 0 00-7.423 0l-2.479 2.475a5.248 5.248 0 000 7.424l18.565 18.565-18.561 18.561a5.247 5.247 0 000 7.424l2.474 2.475a5.248 5.248 0 007.424 0L60.002 69.9l18.561 18.562a5.248 5.248 0 007.424 0l2.475-2.475a5.248 5.248 0 000-7.424L69.9 60.002z" fill="#fff"/></svg>