<svg width="128" height="131" fill="none" xmlns="http://www.w3.org/2000/svg"><path fill="#F3F3F3" d="M66.047 84.68h20.135v6.04H66.047z"/><path d="M106.41 98.88c-1.451-9.02-4.437-20.64-10.427-24.769-4.085-2.816-18.345-10.435-24.434-13.688l-.128-.069a1.992 1.992 0 00-2.168.19c-3.195 2.508-6.691 4.197-10.394 5.02a1.992 1.992 0 00-1.43 1.238l-3.772 9.943-3.772-9.943a1.991 1.991 0 00-1.43-1.237c-3.702-.824-7.2-2.513-10.395-5.02a1.99 1.99 0 00-2.168-.19C29.872 63.57 15.427 71.35 11.35 74.099 4.451 78.747 1.438 95.558.904 98.88c-.053.33-.022.667.09.982.246.697 6.573 17.063 52.663 17.063 46.088 0 52.417-16.366 52.664-17.063.112-.315.142-.652.089-.982zM84.95 88.522H66.696v-3.845H84.95v3.844z" fill="#F3F3F3"/><ellipse cx="54.269" cy="30.08" rx="27.3" ry="29.942" fill="#F3F3F3"/><circle cx="97" cy="100" r="31" fill="#6A25FF"/><rect x="77" y="94" width="41" height="11" rx="2" fill="#fff"/></svg>