<svg width="14" height="15" fill="none" xmlns="http://www.w3.org/2000/svg"><path d="M13.284 13.582h0c.4-.406.4-1.063 0-1.469 0 0 0 0 0 0L8.57 7.32l4.715-4.794s0 0 0 0c.4-.406.4-1.063 0-1.469v12.526zm0 0a1.02 1.02 0 01-1.455 0s0 0 0 0l-4.71-4.79-4.708 4.79a1.018 1.018 0 01-1.456 0 1.05 1.05 0 010-1.469s0 0 0 0L5.67 7.32m7.614 6.263L5.67 7.319m0 0L.955 2.525a1.05 1.05 0 010-1.469 1.018 1.018 0 011.456 0L7.12 5.845l4.709-4.789s0 0 0 0a1.018 1.018 0 011.455 0L5.67 7.32z" fill="#ED1C24" stroke="#ED1C24" stroke-width=".5"/></svg>