<svg width="52" height="55" fill="none" xmlns="http://www.w3.org/2000/svg"><path opacity=".5" d="M37.552 15.89a4.213 4.213 0 005.952-.523 4.255 4.255 0 00-.521-5.973 4.219 4.219 0 00-5.952.523 4.255 4.255 0 00.521 5.973z" fill="#6A25FF"/><path opacity=".55" d="M47.525 20.743c-.263 0-.527.023-.786.069-2.433.43-4.066 2.768-3.636 5.21a4.473 4.473 0 005.192 3.647c2.433-.43 4.065-2.768 3.636-5.21a4.476 4.476 0 00-4.406-3.716z" fill="#6A25FF"/><path opacity=".6" d="M47.37 35.449a4.714 4.714 0 00-2.362-.638 4.758 4.758 0 00-4.112 2.38 4.733 4.733 0 00-.474 3.606 4.727 4.727 0 002.208 2.887 4.72 4.72 0 002.364.639c1.69 0 3.266-.911 4.11-2.378 1.306-2.271.528-5.185-1.734-6.496z" fill="#6A25FF"/><path opacity=".65" d="M33.892 43.905c-.58 0-1.156.102-1.709.303a4.969 4.969 0 00-2.817 2.592 5.014 5.014 0 004.528 7.133c.58 0 1.155-.103 1.707-.305a4.968 4.968 0 002.816-2.593 5.013 5.013 0 00-4.525-7.13z" fill="#6A25FF"/><path opacity=".7" d="M21.21 44.105a5.194 5.194 0 00-1.778-.316 5.214 5.214 0 00-4.884 3.423 5.16 5.16 0 00.173 3.974 5.16 5.16 0 002.933 2.688 5.17 5.17 0 001.778.315 5.214 5.214 0 004.884-3.42 5.159 5.159 0 00-.175-3.974 5.165 5.165 0 00-2.932-2.69z" fill="#6A25FF"/><path opacity=".75" d="M13.057 36.803A5.527 5.527 0 008.28 34.04a5.507 5.507 0 00-5.316 4.097 5.528 5.528 0 005.328 6.96c.96 0 1.91-.257 2.748-.741 2.63-1.524 3.536-4.912 2.018-7.552z" fill="#6A25FF"/><path opacity=".8" d="M5.776 31.028a5.76 5.76 0 005.672-4.782 5.759 5.759 0 00-.956-4.322 5.725 5.725 0 00-3.723-2.38 5.76 5.76 0 00-6.68 4.693 5.763 5.763 0 00.956 4.323 5.728 5.728 0 003.722 2.38 5.94 5.94 0 001.01.088z" fill="#6A25FF"/><path opacity=".9" d="M13.022 18.687a6.022 6.022 0 005.994-5.518 6.013 6.013 0 00-1.384-4.411A6.005 6.005 0 0013.015 6.6a6.016 6.016 0 00-3.87 1.413 6.01 6.01 0 00-2.128 4.103 6.016 6.016 0 001.386 4.411 6.009 6.009 0 004.62 2.16z" fill="#6A25FF"/><path d="M27.368 14.232a7.116 7.116 0 100-14.232 7.116 7.116 0 000 14.232z" fill="#6A25FF"/></svg>