<svg width="90" height="113" viewBox="0 0 90 113" fill="none" xmlns="http://www.w3.org/2000/svg">
<path d="M78.5184 42.375H74.7794V28.25C74.7794 12.6697 61.3644 0 44.8676 0C28.3709 0 14.9559 12.6697 14.9559 28.25V42.375H11.2169C5.03519 42.375 0 47.1253 0 52.9688V102.406C0 108.25 5.03519 113 11.2169 113H78.5184C84.7001 113 89.7353 108.25 89.7353 102.406V52.9688C89.7353 47.1253 84.7001 42.375 78.5184 42.375ZM24.9268 28.25C24.9268 17.8632 33.8698 9.41695 44.8676 9.41695C55.8655 9.41695 64.8085 17.8632 64.8085 28.25V42.375H24.9268V28.25Z" fill="#ECECEC" fill-opacity="0.8"/>
<rect x="20.8291" y="64.1494" width="48.1912" height="3.32353" rx="1.66176" fill="white"/>
<rect x="20.8291" y="77.4443" width="48.1912" height="3.32353" rx="1.66176" fill="white"/>
<rect x="20.8291" y="90.7383" width="48.1912" height="3.32353" rx="1.66176" fill="white"/>
</svg>
