<svg width="135" height="135" viewBox="0 0 135 135" fill="none" xmlns="http://www.w3.org/2000/svg">
<circle cx="67.5" cy="67.5" r="67.5" fill="#F3F3F3"/>
<path d="M67.4998 66.7018C75.5395 66.7018 82.0577 58.7098 82.0577 48.851C82.0577 38.992 79.9177 31 67.4998 31C55.0818 31 52.9414 38.992 52.9414 48.851C52.9414 58.7098 59.4596 66.7018 67.4998 66.7018Z" fill="white"/>
<path d="M40.0029 93.9583C40.0004 93.3572 39.9979 93.789 40.0029 93.9583V93.9583Z" fill="white"/>
<path d="M94.9956 94.4278C95.0035 94.2633 94.9983 93.2861 94.9956 94.4278V94.4278Z" fill="white"/>
<path d="M94.9651 93.2369C94.6955 76.0627 92.4737 71.169 75.4716 68.0713C75.4716 68.0713 73.0784 71.15 67.5 71.15C61.9217 71.15 59.528 68.0713 59.528 68.0713C42.7115 71.1352 40.3546 75.9563 40.0447 92.679C40.0193 94.0445 40.0075 94.1162 40.0029 93.9577C40.004 94.2547 40.0052 94.8041 40.0052 95.7621C40.0052 95.7621 44.053 104 67.5 104C90.9467 104 94.9949 95.7621 94.9949 95.7621C94.9949 95.1466 94.9953 94.7186 94.9959 94.4274C94.9914 94.5255 94.9823 94.3355 94.9651 93.2369Z" fill="white"/>
</svg>
