<svg width="75" height="79" viewBox="0 0 75 79" fill="none" xmlns="http://www.w3.org/2000/svg">
<path d="M68.9171 64.6849C67.9696 58.794 66.0191 51.2058 62.1073 48.5097C59.4399 46.6702 50.1277 41.6948 46.1513 39.5704L46.0677 39.5258C45.6125 39.2826 45.0572 39.3314 44.6515 39.6498C42.5654 41.2872 40.2817 42.3903 37.864 42.9284C37.4367 43.0233 37.0858 43.3273 36.9305 43.7365L34.4668 50.2298L32.0031 43.7365C31.8477 43.3271 31.4969 43.0233 31.0696 42.9284C28.6519 42.3903 26.3677 41.2872 24.2814 39.6498C23.8759 39.3312 23.3204 39.2824 22.8655 39.5258C18.9334 41.6265 9.50063 46.7064 6.83746 48.5018C2.3325 51.5367 0.365085 62.5152 0.0165139 64.6852C-0.0180878 64.9004 0.00188364 65.1206 0.0745704 65.3259C0.235735 65.781 4.36797 76.4688 34.4666 76.4688C64.5647 76.4688 68.6974 65.781 68.8588 65.3261C68.9317 65.1203 68.9517 64.9 68.9171 64.6849ZM54.9027 57.9202H42.9816V55.4096H54.9027V57.9202Z" fill="#F3F3F3"/>
<ellipse cx="34.8672" cy="19.7546" rx="17.8281" ry="19.5534" fill="#F3F3F3"/>
<circle cx="57.5" cy="61.5" r="17.5" fill="#7BC05A"/>
<path d="M65 55L54.6875 67L50 61.5455" stroke="white" stroke-width="4" stroke-linecap="round" stroke-linejoin="round"/>
</svg>
