<svg width="76" height="91" viewBox="0 0 76 91" fill="none" xmlns="http://www.w3.org/2000/svg">
<path d="M68.9171 74.6849C67.9696 68.794 66.0191 61.2058 62.1073 58.5097C59.4399 56.6702 50.1277 51.6948 46.1513 49.5704L46.0677 49.5258C45.6125 49.2826 45.0572 49.3314 44.6515 49.6498C42.5654 51.2872 40.2817 52.3903 37.864 52.9284C37.4367 53.0233 37.0858 53.3273 36.9305 53.7365L34.4668 60.2298L32.0031 53.7365C31.8477 53.3271 31.4969 53.0233 31.0696 52.9284C28.6519 52.3903 26.3677 51.2872 24.2814 49.6498C23.8759 49.3312 23.3204 49.2824 22.8655 49.5258C18.9334 51.6265 9.50063 56.7064 6.83746 58.5018C2.3325 61.5367 0.365085 72.5152 0.0165139 74.6852C-0.0180878 74.9004 0.00188364 75.1206 0.0745704 75.3259C0.235735 75.781 4.36797 86.4688 34.4666 86.4688C64.5647 86.4688 68.6974 75.781 68.8588 75.3261C68.9317 75.1203 68.9517 74.9 68.9171 74.6849ZM54.9027 67.9202H42.9816V65.4096H54.9027V67.9202Z" fill="#F3F3F3"/>
<ellipse cx="34.8672" cy="29.7546" rx="17.8281" ry="19.5534" fill="#F3F3F3"/>
<path d="M20.3889 6.23821C18.5963 11.8776 17.252 20.5534 17.252 20.5534H51.758C51.758 20.5534 50.8617 11.8776 48.621 6.23821C46.3804 0.598798 43.6916 0.165136 40.1066 1.90027C36.5215 3.63541 32.4884 3.2016 28.9033 1.90027C25.3183 0.598942 22.1814 0.598816 20.3889 6.23821Z" fill="#F3F3F3" stroke="#F3F3F3"/>
<path d="M69.0102 22.8539C69.0102 24.7596 53.8189 26.3045 35.0793 26.3045C16.3398 26.3045 1.14844 24.7596 1.14844 22.8539C1.14844 20.9482 16.3398 19.4033 35.0793 19.4033C53.8189 19.4033 69.0102 20.9482 69.0102 22.8539Z" fill="#F3F3F3"/>
<circle cx="58.5" cy="73.5" r="17.5" fill="#FD6949"/>
<path d="M65.6798 80.8795L65.6799 80.8794C66.1926 80.3451 66.1926 79.4867 65.6799 78.9524L60.7477 73.8086L65.6799 68.6647C65.68 68.6647 65.68 68.6646 65.68 68.6646C65.68 68.6646 65.6801 68.6646 65.6801 68.6646C66.1926 68.1303 66.1926 67.2721 65.6801 66.7379L65.6798 80.8795ZM65.6798 80.8795C65.4206 81.1494 65.0754 81.2887 64.7273 81.2887M65.6798 80.8795L64.7273 81.2887M56.9948 73.8085L52.0629 78.9521C52.0628 78.9522 52.0628 78.9522 52.0627 78.9523C51.5502 79.4865 51.5502 80.3447 52.0627 80.8789L56.9948 73.8085ZM56.9948 73.8085L52.0629 68.6647C51.5502 68.1305 51.5502 67.2722 52.0627 66.7379C52.5866 66.1915 53.4444 66.1915 53.9682 66.7379L58.8713 71.8515L63.7746 66.7379C63.7746 66.7379 63.7746 66.7379 63.7746 66.7379C64.2984 66.1916 65.1561 66.1915 65.6799 66.7377L56.9948 73.8085ZM64.7273 81.2887C64.3792 81.2887 64.0338 81.1494 63.7746 80.8789M64.7273 81.2887L63.7746 80.8789M63.7746 80.8789L58.8713 75.7653L53.9682 80.8789C53.709 81.1494 53.3636 81.2887 53.0155 81.2887C52.6674 81.2887 52.3221 81.1494 52.0629 80.8791L63.7746 80.8789Z" fill="white" stroke="white"/>
</svg>
