<svg width="99" height="93" viewBox="0 0 99 93" fill="none" xmlns="http://www.w3.org/2000/svg">
<path d="M0 6C0 2.68629 2.68629 0 6 0H67.5513C70.865 0 73.5513 2.68629 73.5513 6V44.2111C73.5513 44.7206 73.4863 45.2281 73.3581 45.7213L69.1932 61.7358C69.0649 62.2289 69 62.7364 69 63.246V81.3511C69 84.6648 66.3137 87.3511 63 87.3511H6C2.68629 87.3511 0 84.6648 0 81.3511V6Z" fill="#F3F3F3"/>
<rect x="11.0327" y="10.2764" width="18.3878" height="17.1277" rx="2" fill="white"/>
<rect x="11.0327" y="34.2549" width="18.3878" height="17.1277" rx="2" fill="white"/>
<rect x="11.0327" y="58.2334" width="18.3878" height="17.1277" rx="2" fill="white"/>
<rect x="38.3745" y="65.5312" width="25.583" height="2.97872" rx="1.48936" fill="white"/>
<rect x="38.3745" y="17.8721" width="25.583" height="2.97872" rx="1.48936" fill="white"/>
<rect x="38.6143" y="41.7012" width="25.7429" height="3.05305" rx="1.52652" fill="white"/>
<path d="M97.9853 81.7599L80.303 48.6306C78.9685 46.3441 76.6114 44.9785 73.9981 44.9785C71.3849 44.9785 69.0278 46.3441 67.6932 48.6306C67.6832 48.6481 67.6747 48.6656 67.6646 48.6831L50.0412 81.7076C48.678 84.0423 48.6522 86.8461 49.9709 89.207C51.2927 91.5693 53.674 92.9785 56.3446 92.9785H91.554C94.2246 92.9785 96.7037 91.5693 98.0254 89.207C99.3442 86.8462 99.3185 84.0422 97.9853 81.7599ZM71.0655 60.1478C71.0655 58.4994 72.3785 57.1632 73.9981 57.1632C75.6179 57.1632 76.9308 58.4995 76.9308 60.1478V72.0862C76.9308 73.7345 75.6178 75.0708 73.9981 75.0708C72.3785 75.0708 71.0655 73.7344 71.0655 72.0862V60.1478ZM73.9981 87.0094C71.5724 87.0094 69.5991 85.0011 69.5991 82.5324C69.5991 80.0637 71.5724 78.0555 73.9981 78.0555C76.4238 78.0555 78.3971 80.0637 78.3971 82.5324C78.3972 85.001 76.4239 87.0094 73.9981 87.0094Z" fill="#6A25FF"/>
<path d="M18.9291 20.1607L15.884 17.1156C15.3954 16.6269 14.6051 16.6269 14.1165 17.1156C13.6278 17.6042 13.6278 18.3945 14.1165 18.8831L18.1165 22.8831C18.3514 23.118 18.669 23.2493 19.0002 23.2493L19.0024 23.2493C19.0129 23.2494 19.0312 23.2494 19.0512 23.248C19.3987 23.2341 19.723 23.0754 19.948 22.8131L19.9481 22.813L25.9479 15.8133L18.9291 20.1607ZM18.9291 20.1607L24.0504 14.1856L24.0508 14.1852C24.5003 13.6633 25.2898 13.6013 25.813 14.0506C26.3366 14.4994 26.398 15.2891 25.9481 15.813L18.9291 20.1607Z" fill="#7BC05A" stroke="#7BC05A" stroke-width="0.5"/>
<path d="M18.9291 68.1607L15.884 65.1156C15.3954 64.6269 14.6051 64.6269 14.1165 65.1156C13.6278 65.6042 13.6278 66.3945 14.1165 66.8831L18.1165 70.8831C18.3514 71.118 18.669 71.2493 19.0002 71.2493L19.0024 71.2493C19.0129 71.2494 19.0312 71.2494 19.0512 71.248C19.3987 71.2341 19.723 71.0754 19.948 70.8131L19.9481 70.813L25.9479 63.8133L18.9291 68.1607ZM18.9291 68.1607L24.0504 62.1856L24.0508 62.1852C24.5003 61.6633 25.2898 61.6013 25.813 62.0506C26.3366 62.4994 26.398 63.2891 25.9481 63.813L18.9291 68.1607Z" fill="#7BC05A" stroke="#7BC05A" stroke-width="0.5"/>
<path d="M24.884 46.1155L21.7678 42.9993L24.884 39.8831C25.3727 39.3944 25.3727 38.6041 24.884 38.1155C24.3954 37.6269 23.6051 37.6269 23.1165 38.1155L20.0002 41.2317L16.884 38.1155C16.3954 37.6269 15.6051 37.6269 15.1165 38.1155C14.6278 38.6041 14.6278 39.3944 15.1165 39.8831L18.2327 42.9993L15.1165 46.1155C14.6278 46.6041 14.6278 47.3944 15.1165 47.883C15.3601 48.1267 15.6805 48.2493 16.0002 48.2493C16.32 48.2493 16.6404 48.1267 16.884 47.883L20.0002 44.7668L23.1165 47.883C23.3601 48.1267 23.6805 48.2493 24.0002 48.2493C24.32 48.2493 24.6404 48.1267 24.884 47.883C25.3727 47.3944 25.3727 46.6041 24.884 46.1155Z" fill="#F2856D" stroke="#F2856D" stroke-width="0.5"/>
</svg>
