<svg width="99" height="93" viewBox="0 0 99 93" fill="none" xmlns="http://www.w3.org/2000/svg">
<rect y="0.0214844" width="73.5513" height="87.3511" rx="6" fill="#F3F3F3"/>
<rect x="11.0327" y="10.2979" width="18.3878" height="17.1277" rx="2" fill="white"/>
<rect x="11.0327" y="34.2764" width="18.3878" height="17.1277" rx="2" fill="white"/>
<rect x="11.0327" y="58.2549" width="18.3878" height="17.1277" rx="2" fill="white"/>
<path d="M19.6367 47.9598C19.5139 48.0913 19.3462 48.1647 19.1721 48.1647C18.998 48.1647 18.8303 48.0913 18.7075 47.9598L14.9968 44.0091C14.6117 43.5991 14.6117 42.9344 14.9968 42.5252L15.4614 42.0305C15.8467 41.6206 16.4704 41.6206 16.8555 42.0305L19.1721 44.4968L25.432 37.8328C25.8172 37.4229 26.4415 37.4229 26.826 37.8328L27.2906 38.3276C27.6757 38.7375 27.6757 39.4021 27.2906 39.8114L19.6367 47.9598Z" fill="white"/>
<rect x="38.3745" y="65.5527" width="25.583" height="2.97872" rx="1.48936" fill="white"/>
<rect x="38.3745" y="17.8936" width="25.583" height="2.97872" rx="1.48936" fill="white"/>
<g clip-path="url(#clip0)">
<path d="M18.6577 71.9375C18.5349 72.069 18.3672 72.1424 18.1931 72.1424C18.019 72.1424 17.8513 72.069 17.7285 71.9375L14.0178 67.9867C13.6327 67.5768 13.6327 66.912 14.0178 66.5029L14.4824 66.0081C14.8677 65.5982 15.4914 65.5982 15.8765 66.0081L18.1931 68.4744L24.453 61.8104C24.8382 61.4004 25.4625 61.4004 25.847 61.8104L26.3116 62.3051C26.6967 62.7151 26.6967 63.3797 26.3116 63.789L18.6577 71.9375Z" fill="#7BC05A"/>
</g>
<rect x="38.6143" y="41.7227" width="25.7429" height="3.05305" rx="1.52652" fill="white"/>
<path d="M15.9148 45.9196C15.7094 46.1107 15.7094 46.4208 15.9148 46.6119M15.9148 45.9196L18.8536 43.1822L18.4868 42.8406M15.9148 45.9196L15.574 45.5537L15.5741 45.5535M15.9148 45.9196L15.5741 45.5535M15.9148 46.6119L24.0126 39.0693C23.8072 38.878 23.4746 38.878 23.2693 39.0693L19.9638 42.1482L16.6581 39.0693C16.4527 38.878 16.1201 38.878 15.9148 39.0693C15.7094 39.2604 15.7094 39.5705 15.9148 39.7616M15.9148 46.6119C16.0175 46.7074 16.152 46.7552 16.2864 46.7552C16.4208 46.7552 16.5554 46.7074 16.6581 46.6118M15.9148 46.6119L19.9638 43.5328M18.4868 42.8406L18.8536 42.4989L15.9148 39.7616M18.4868 42.8406L15.5741 40.1276M18.4868 42.8406L15.5741 45.5535M15.9148 39.7616L15.5741 40.1276M15.9148 39.7616L15.574 40.1275C15.1563 39.7387 15.1563 39.0922 15.574 38.7034L15.5741 40.1276M24.3534 38.7034C24.771 39.0922 24.771 39.7386 24.3534 40.1275C24.3533 40.1275 24.3533 40.1276 24.3532 40.1276L21.4407 42.8406L24.3532 45.5534C24.3533 45.5534 24.3533 45.5535 24.3534 45.5535C24.771 45.9424 24.771 46.5888 24.3534 46.9776L24.3534 38.7034ZM24.3534 38.7034C23.956 38.3332 23.3258 38.3332 22.9285 38.7034L19.9637 41.4649L16.9989 38.7034C16.9989 38.7034 16.9989 38.7034 16.9989 38.7034C16.6016 38.3333 15.9715 38.3333 15.5741 38.7032L24.3534 38.7034ZM15.5741 40.1276L24.3532 46.9778C24.151 47.1661 23.8918 47.2552 23.6409 47.2552C23.39 47.2552 23.1307 47.1661 22.9285 46.9776L19.9637 44.2161M15.5741 45.5535C15.1563 45.9424 15.1563 46.5891 15.5741 46.9779L15.5743 46.9781C15.7765 47.1661 16.0356 47.2552 16.2864 47.2552C16.5373 47.2552 16.7966 47.1661 16.9989 46.9776L16.6581 46.6118M16.6581 46.6118L16.9989 46.9776L19.9637 44.2161M16.6581 46.6118L19.9638 43.5328M19.9637 44.2161L19.623 43.8987L19.9638 43.5328M19.9637 44.2161L20.3045 43.8987L19.9638 43.5328" fill="#F2856D" stroke="#F2856D"/>
<path d="M97.9853 81.7814L80.303 48.6521C78.9685 46.3656 76.6114 45 73.9981 45C71.3849 45 69.0278 46.3656 67.6932 48.6521C67.6832 48.6696 67.6747 48.687 67.6646 48.7045L50.0412 81.7291C48.678 84.0637 48.6522 86.8675 49.9709 89.2285C51.2927 91.5908 53.674 93 56.3446 93H91.554C94.2246 93 96.7037 91.5908 98.0254 89.2285C99.3442 86.8676 99.3185 84.0636 97.9853 81.7814ZM71.0655 60.1693C71.0655 58.5209 72.3785 57.1847 73.9981 57.1847C75.6179 57.1847 76.9308 58.521 76.9308 60.1693V72.1077C76.9308 73.756 75.6178 75.0923 73.9981 75.0923C72.3785 75.0923 71.0655 73.7559 71.0655 72.1077V60.1693ZM73.9981 87.0308C71.5725 87.0308 69.5991 85.0226 69.5991 82.5539C69.5991 80.0852 71.5724 78.077 73.9981 78.077C76.4238 78.077 78.3971 80.0852 78.3971 82.5539C78.3972 85.0225 76.4239 87.0308 73.9981 87.0308Z" fill="#6A25FF"/>
<defs>
<clipPath id="clip0">
<rect width="12.8715" height="13.7021" fill="white" transform="translate(13.729 59.9678)"/>
</clipPath>
</defs>
</svg>
