<svg width="137" height="129" viewBox="0 0 137 129" fill="none" xmlns="http://www.w3.org/2000/svg">
<circle cx="60" cy="60" r="60" fill="#F3F3F3"/>
<path d="M69.9 60.0019L88.4618 41.4401C90.5127 39.3892 90.5127 36.0642 88.4618 34.0165L85.9873 31.542C83.9358 29.4905 80.6108 29.4905 78.5631 31.542L60.0019 50.1032L41.4401 31.5382C39.3892 29.4873 36.0642 29.4873 34.0165 31.5382L31.5382 34.0127C29.4873 36.0642 29.4873 39.3892 31.5382 41.4369L50.1032 60.0019L31.542 78.5631C29.4905 80.6146 29.4905 83.9396 31.542 85.9873L34.0165 88.4618C36.0674 90.5127 39.3924 90.5127 41.4401 88.4618L60.0019 69.9L78.5631 88.4618C80.6146 90.5127 83.9396 90.5127 85.9873 88.4618L88.4618 85.9873C90.5127 83.9358 90.5127 80.6108 88.4618 78.5631L69.9 60.0019Z" fill="white"/>
<path d="M129.335 84.625H126.985V75.75C126.985 65.9606 118.556 58 108.191 58C97.826 58 89.3971 65.9606 89.3971 75.75V84.625H87.0478C83.1637 84.625 80 87.6097 80 91.2812V122.344C80 126.015 83.1637 129 87.0478 129H129.335C133.219 129 136.382 126.015 136.382 122.344V91.2812C136.382 87.6097 133.219 84.625 129.335 84.625ZM95.662 75.75C95.662 69.2238 101.281 63.9168 108.191 63.9168C115.101 63.9168 120.72 69.2238 120.72 75.75V84.625H95.662V75.75Z" fill="#6A25FF"/>
<rect x="93.0879" y="98.3066" width="30.2794" height="2.08824" rx="1.04412" fill="white"/>
<rect x="93.0879" y="106.659" width="30.2794" height="2.08824" rx="1.04412" fill="white"/>
<rect x="93.0879" y="115.013" width="30.2794" height="2.08824" rx="1.04412" fill="white"/>
</svg>
