<svg width="94" height="118" viewBox="0 0 94 118" fill="none" xmlns="http://www.w3.org/2000/svg">
<rect x="57.9668" y="88.7334" width="17.9101" height="5.37301" fill="#F3F3F3"/>
<path d="M93.8707 101.365C92.5801 93.3408 89.9234 83.005 84.5952 79.3326C80.962 76.8271 68.278 70.0502 62.8618 67.1566L62.7479 67.0958C62.1279 66.7647 61.3716 66.8311 60.819 67.2648C57.9776 69.4951 54.867 70.9975 51.5739 71.7304C50.9919 71.8598 50.5139 72.2738 50.3023 72.8312L46.9466 81.6756L43.5908 72.8312C43.3792 72.2735 42.9013 71.8598 42.3193 71.7304C39.0262 70.9975 35.9149 69.4951 33.0732 67.2648C32.5209 66.8308 31.7643 66.7643 31.1446 67.0958C25.7889 69.9572 12.9406 76.8765 9.31318 79.3219C3.17706 83.4558 0.497276 98.4094 0.0224933 101.365C-0.0246371 101.658 0.00256567 101.958 0.101571 102.238C0.321091 102.858 5.94953 117.415 46.9463 117.415C87.9424 117.415 93.5715 102.858 93.7913 102.238C93.8906 101.958 93.9178 101.658 93.8707 101.365ZM74.782 92.1505H58.5445V88.7309H74.782V92.1505Z" fill="#F3F3F3"/>
<ellipse cx="47.4894" cy="40.1668" rx="24.2833" ry="26.6333" fill="#F3F3F3"/>
<path d="M27.7727 8.13487C25.3312 15.8162 23.5 27.6333 23.5 27.6333H70.5C70.5 27.6333 69.2792 15.8162 66.2273 8.13487C63.1753 0.453531 59.513 -0.137153 54.6299 2.22624C49.7468 4.58964 44.2532 3.99876 39.3701 2.22624C34.487 0.453726 30.2143 0.453555 27.7727 8.13487Z" fill="#F3F3F3" stroke="#F3F3F3"/>
<path d="M94.0002 30.7667C94.0002 33.3624 73.3083 35.4667 47.7836 35.4667C22.2588 35.4667 1.56689 33.3624 1.56689 30.7667C1.56689 28.1709 22.2588 26.0667 47.7836 26.0667C73.3083 26.0667 94.0002 28.1709 94.0002 30.7667Z" fill="#F3F3F3"/>
</svg>
