<svg width="134" height="111" viewBox="0 0 134 111" fill="none" xmlns="http://www.w3.org/2000/svg">
<path d="M0 48.4648V96.9297H55.7785H111.557V48.4648V0H55.7785H0V48.4648ZM19.9582 13.9682V20.4391H14.2061H8.45393V13.9682V7.49732H14.2061H19.9582V13.9682ZM103.103 13.9682V20.4391H97.3509H91.5988V13.9682V7.49732H97.3509H103.103V13.9682ZM19.9582 31.2388V37.6651H14.2061H8.45393V31.2388V24.8126H14.2061H19.9582V31.2388ZM103.103 31.2388V37.6651H97.3509H91.5988V31.2388V24.8126H97.3509H103.103V31.2388ZM60.1624 37.1296C70.0107 42.949 78.0463 47.733 78.0202 47.7687C77.9505 47.8311 41.8426 69.1717 41.6857 69.2342C41.5986 69.2699 41.5724 64.9322 41.5724 47.7151V26.1424L41.9123 26.3477C42.0953 26.4638 50.3052 31.3102 60.1624 37.1296ZM19.9582 48.4648V54.8911H14.2061H8.45393V48.4648V42.0386H14.2061H19.9582V48.4648ZM103.103 48.4648V54.8911H97.3509H91.5988V48.4648V42.0386H97.3509H103.103V48.4648ZM19.9582 65.6908V72.1171H14.2061H8.45393V65.6908V59.2646H14.2061H19.9582V65.6908ZM103.103 65.6908V72.1171H97.3509H91.5988V65.6908V59.2646H97.3509H103.103V65.6908ZM19.9582 82.9615V89.4324H14.2061H8.45393V82.9615V76.4906H14.2061H19.9582V82.9615ZM103.103 82.9615V89.4324H97.3509H91.5988V82.9615V76.4906H97.3509H103.103V82.9615Z" fill="#F3F3F3"/>
<path d="M126.335 66.625H123.985V57.75C123.985 47.9606 115.556 40 105.191 40C94.826 40 86.3971 47.9606 86.3971 57.75V66.625H84.0478C80.1637 66.625 77 69.6097 77 73.2812V104.344C77 108.015 80.1637 111 84.0478 111H126.335C130.219 111 133.382 108.015 133.382 104.344V73.2812C133.382 69.6097 130.219 66.625 126.335 66.625ZM92.662 57.75C92.662 51.2238 98.281 45.9168 105.191 45.9168C112.101 45.9168 117.72 51.2238 117.72 57.75V66.625H92.662V57.75Z" fill="#6A25FF"/>
<rect x="90.0879" y="80.3066" width="30.2794" height="2.08824" rx="1.04412" fill="white"/>
<rect x="90.0879" y="88.6594" width="30.2794" height="2.08824" rx="1.04412" fill="white"/>
<rect x="90.0879" y="97.0125" width="30.2794" height="2.08824" rx="1.04412" fill="white"/>
</svg>
