<svg width="114" height="124" viewBox="0 0 114 124" fill="none" xmlns="http://www.w3.org/2000/svg">
<rect x="57.9668" y="88.7334" width="17.9101" height="5.37301" fill="#F3F3F3"/>
<path d="M93.8707 101.365C92.5801 93.341 89.9234 83.0053 84.5952 79.3329C80.962 76.8274 68.278 70.0504 62.8618 67.1568L62.7479 67.0961C62.1279 66.7649 61.3716 66.8313 60.819 67.265C57.9776 69.4953 54.867 70.9978 51.5739 71.7307C50.9919 71.86 50.5139 72.2741 50.3023 72.8314L46.9466 81.6758L43.5908 72.8314C43.3792 72.2738 42.9013 71.86 42.3193 71.7307C39.0262 70.9978 35.9149 69.4953 33.0732 67.265C32.5209 66.831 31.7643 66.7646 31.1446 67.0961C25.7889 69.9574 12.9406 76.8767 9.31318 79.3221C3.17706 83.456 0.497276 98.4096 0.0224933 101.365C-0.0246371 101.658 0.00256567 101.958 0.101571 102.238C0.321091 102.858 5.94953 117.415 46.9463 117.415C87.9424 117.415 93.5715 102.858 93.7913 102.238C93.8906 101.958 93.9178 101.658 93.8707 101.365ZM74.782 92.1508H58.5445V88.7311H74.782V92.1508Z" fill="#F3F3F3"/>
<ellipse cx="47.4904" cy="40.1665" rx="24.2833" ry="26.6333" fill="#F3F3F3"/>
<path d="M27.7727 8.13487C25.3312 15.8162 23.5 27.6333 23.5 27.6333H70.5C70.5 27.6333 69.2792 15.8162 66.2273 8.13487C63.1753 0.453531 59.513 -0.137153 54.6299 2.22624C49.7468 4.58964 44.2532 3.99876 39.3701 2.22624C34.487 0.453726 30.2143 0.453555 27.7727 8.13487Z" fill="#F3F3F3" stroke="#F3F3F3"/>
<path d="M93.9997 30.7664C93.9997 33.3621 73.3078 35.4664 47.7831 35.4664C22.2583 35.4664 1.56641 33.3621 1.56641 30.7664C1.56641 28.1707 22.2583 26.0664 47.7831 26.0664C73.3078 26.0664 93.9997 28.1707 93.9997 30.7664Z" fill="#F3F3F3"/>
<path d="M106.335 79.625H103.985V70.75C103.985 60.9606 95.5564 53 85.1912 53C74.826 53 66.3971 60.9606 66.3971 70.75V79.625H64.0478C60.1637 79.625 57 82.6097 57 86.2812V117.344C57 121.015 60.1637 124 64.0478 124H106.335C110.219 124 113.382 121.015 113.382 117.344V86.2812C113.382 82.6097 110.219 79.625 106.335 79.625ZM72.662 70.75C72.662 64.2238 78.281 58.9168 85.1912 58.9168C92.1013 58.9168 97.7204 64.2238 97.7204 70.75V79.625H72.662V70.75Z" fill="#6A25FF"/>
<rect x="70.0879" y="93.3066" width="30.2794" height="2.08824" rx="1.04412" fill="white"/>
<rect x="70.0879" y="101.659" width="30.2794" height="2.08824" rx="1.04412" fill="white"/>
<rect x="70.0879" y="110.013" width="30.2794" height="2.08824" rx="1.04412" fill="white"/>
</svg>
