<svg width="112" height="97" viewBox="0 0 112 97" fill="none" xmlns="http://www.w3.org/2000/svg">
<path d="M0 48.4648V96.9297H55.7785H111.557V48.4648V0H55.7785H0V48.4648ZM19.9582 13.9682V20.4391H14.2061H8.45393V13.9682V7.49732H14.2061H19.9582V13.9682ZM103.103 13.9682V20.4391H97.3509H91.5988V13.9682V7.49732H97.3509H103.103V13.9682ZM19.9582 31.2388V37.6651H14.2061H8.45393V31.2388V24.8126H14.2061H19.9582V31.2388ZM103.103 31.2388V37.6651H97.3509H91.5988V31.2388V24.8126H97.3509H103.103V31.2388ZM60.1624 37.1296C70.0107 42.949 78.0463 47.733 78.0202 47.7687C77.9505 47.8311 41.8426 69.1717 41.6857 69.2342C41.5986 69.2699 41.5724 64.9322 41.5724 47.7151V26.1424L41.9123 26.3477C42.0953 26.4638 50.3052 31.3102 60.1624 37.1296ZM19.9582 48.4648V54.8911H14.2061H8.45393V48.4648V42.0386H14.2061H19.9582V48.4648ZM103.103 48.4648V54.8911H97.3509H91.5988V48.4648V42.0386H97.3509H103.103V48.4648ZM19.9582 65.6908V72.1171H14.2061H8.45393V65.6908V59.2646H14.2061H19.9582V65.6908ZM103.103 65.6908V72.1171H97.3509H91.5988V65.6908V59.2646H97.3509H103.103V65.6908ZM19.9582 82.9615V89.4324H14.2061H8.45393V82.9615V76.4906H14.2061H19.9582V82.9615ZM103.103 82.9615V89.4324H97.3509H91.5988V82.9615V76.4906H97.3509H103.103V82.9615Z" fill="#F3F3F3"/>
</svg>
