<svg width="128" height="131" viewBox="0 0 128 131" fill="none" xmlns="http://www.w3.org/2000/svg">
<rect x="66.0469" y="84.6797" width="20.1348" height="6.04044" fill="#F3F3F3"/>
<path d="M106.41 98.8802C104.959 89.8596 101.973 78.2399 95.9825 74.1114C91.898 71.2946 77.6383 63.6758 71.5493 60.4228L71.4213 60.3545C70.7243 59.9822 69.8741 60.0569 69.2529 60.5444C66.0585 63.0518 62.5615 64.7409 58.8593 65.5648C58.205 65.7102 57.6677 66.1757 57.4298 66.8023L53.6572 76.7453L49.8846 66.8023C49.6467 66.1754 49.1094 65.7102 48.4551 65.5648C44.7529 64.7409 41.2552 63.0518 38.0604 60.5444C37.4395 60.0565 36.5889 59.9818 35.8923 60.3545C29.8713 63.5713 15.427 71.3501 11.349 74.0993C4.45062 78.7466 1.43795 95.5578 0.904194 98.8805C0.851209 99.2102 0.881791 99.5473 0.993094 99.8616C1.23988 100.559 7.56748 116.925 53.6568 116.925C99.7454 116.925 106.074 100.559 106.321 99.862C106.433 99.5469 106.463 99.2095 106.41 98.8802ZM84.9502 88.5215H66.6957V84.677H84.9502V88.5215Z" fill="#F3F3F3"/>
<ellipse cx="54.2685" cy="30.0804" rx="27.2998" ry="29.9417" fill="#F3F3F3"/>
<circle cx="97" cy="100" r="31" fill="#6A25FF"/>
<rect x="77" y="94" width="41" height="11" rx="2" fill="white"/>
</svg>
