<svg width="120" height="120" viewBox="0 0 120 120" fill="none" xmlns="http://www.w3.org/2000/svg">
<circle cx="60" cy="60" r="60" fill="#F3F3F3"/>
<path d="M69.9 60.0019L88.4618 41.4401C90.5127 39.3892 90.5127 36.0642 88.4618 34.0165L85.9873 31.542C83.9358 29.4905 80.6108 29.4905 78.5631 31.542L60.0019 50.1032L41.4401 31.5382C39.3892 29.4873 36.0642 29.4873 34.0165 31.5382L31.5382 34.0127C29.4873 36.0642 29.4873 39.3892 31.5382 41.4369L50.1032 60.0019L31.542 78.5631C29.4905 80.6146 29.4905 83.9396 31.542 85.9873L34.0165 88.4618C36.0674 90.5127 39.3924 90.5127 41.4401 88.4618L60.0019 69.9L78.5631 88.4618C80.6146 90.5127 83.9396 90.5127 85.9873 88.4618L88.4618 85.9873C90.5127 83.9358 90.5127 80.6108 88.4618 78.5631L69.9 60.0019Z" fill="white"/>
</svg>
