<svg width="14" height="15" viewBox="0 0 14 15" fill="none" xmlns="http://www.w3.org/2000/svg">
<path d="M13.2844 13.5819L13.2844 13.5818C13.6838 13.176 13.6838 12.5194 13.2845 12.1135C13.2845 12.1135 13.2845 12.1135 13.2844 12.1135L8.56931 7.319L13.2844 2.52453C13.2845 2.5245 13.2845 2.52448 13.2845 2.52445C13.6838 2.11867 13.6838 1.46208 13.2845 1.05629L13.2844 13.5819ZM13.2844 13.5819C13.0842 13.7851 12.8204 13.8877 12.5567 13.8877C12.293 13.8877 12.0292 13.7851 11.829 13.5814C11.829 13.5814 11.829 13.5814 11.829 13.5814L7.11965 8.79286L2.41058 13.5814C2.21035 13.7851 1.94652 13.8877 1.68282 13.8877C1.41912 13.8877 1.15529 13.7851 0.955056 13.5814C0.555745 13.1757 0.555747 12.5191 0.955061 12.1133C0.955084 12.1133 0.955108 12.1132 0.955131 12.1132L5.66999 7.31899M13.2844 13.5819L5.66999 7.31899M5.66999 7.31899L0.955131 2.52453C0.555722 2.11872 0.555722 1.46202 0.955131 1.05621C1.35674 0.647904 2.009 0.647929 2.41058 1.05629L7.11965 5.84487L11.829 1.05629C11.829 1.05629 11.829 1.05628 11.829 1.05628C12.2306 0.64793 12.8828 0.647906 13.2844 1.05621L5.66999 7.31899Z" fill="#ED1C24" stroke="#ED1C24" stroke-width="0.5"/>
</svg>
