<svg width="52" height="55" viewBox="0 0 52 55" fill="none" xmlns="http://www.w3.org/2000/svg">
<path opacity="0.5" d="M37.552 15.8903C38.3105 16.5299 39.2741 16.8816 40.2626 16.8816C41.517 16.8816 42.6976 16.3296 43.5038 15.3672C45.0013 13.5769 44.7674 10.8976 42.983 9.39413C42.2234 8.75453 41.2598 8.40234 40.2702 8.40234C39.0164 8.40234 37.8358 8.95431 37.0306 9.9167C35.5327 11.7076 35.767 14.3863 37.552 15.8903Z" fill="#6A25FF"/>
<path opacity="0.55" d="M47.5245 20.7427C47.2624 20.7427 46.9977 20.7661 46.7389 20.8118C44.3055 21.2424 42.6735 23.5803 43.1027 26.0228C43.4803 28.1757 45.3331 29.7379 47.5077 29.7379C47.7692 29.7379 48.035 29.7145 48.2949 29.6693C50.7283 29.2382 52.3597 26.9008 51.9306 24.4594C51.5519 22.306 49.6985 20.7427 47.5245 20.7427Z" fill="#6A25FF"/>
<path opacity="0.6" d="M47.3699 35.449C46.6494 35.0309 45.8323 34.811 45.0076 34.811C43.3159 34.811 41.7403 35.7228 40.8956 37.1904C40.2635 38.2894 40.0942 39.5697 40.4225 40.7966C40.7507 42.0236 41.5358 43.0496 42.6301 43.6838C43.3512 44.1024 44.1683 44.3229 44.994 44.3229C46.6846 44.3229 48.2602 43.4116 49.1044 41.9446C50.4098 39.6736 49.6318 36.7598 47.3699 35.449Z" fill="#6A25FF"/>
<path opacity="0.65" d="M33.8921 43.9048C33.3116 43.9048 32.7365 44.0071 32.1831 44.2085C30.9298 44.6663 29.9298 45.5868 29.3656 46.8001C28.8019 48.0135 28.7427 49.3743 29.1985 50.6323C29.9146 52.6061 31.8016 53.9327 33.8937 53.9327C34.4743 53.9327 35.0494 53.8303 35.6011 53.6284C36.8533 53.1706 37.8527 52.2506 38.4175 51.0351C38.9818 49.8212 39.0415 48.4604 38.5868 47.2046C37.8717 45.2313 35.9842 43.9048 33.8921 43.9048Z" fill="#6A25FF"/>
<path opacity="0.7" d="M21.2094 44.1048C20.6328 43.8954 20.0347 43.7891 19.4323 43.7891C17.2558 43.7891 15.293 45.1646 14.5483 47.2117C14.0726 48.5169 14.1344 49.9284 14.7212 51.1863C15.3075 52.4448 16.3485 53.3989 17.6536 53.874C18.2292 54.0839 18.8278 54.1892 19.4318 54.1892C21.6094 54.1892 23.5717 52.8136 24.3158 50.7681C24.7905 49.4656 24.7282 48.0541 24.1408 46.7951C23.5529 45.5345 22.5124 44.5794 21.2094 44.1048Z" fill="#6A25FF"/>
<path opacity="0.75" d="M13.0575 36.8032C12.0755 35.0978 10.2455 34.0391 8.28035 34.0391C7.31949 34.0391 6.36948 34.296 5.53124 34.7799C4.25624 35.5186 3.34475 36.7118 2.96442 38.1363C2.58301 39.5625 2.77833 41.0524 3.51457 42.331C4.49659 44.037 6.32716 45.0963 8.29229 45.0963C9.25261 45.0963 10.2026 44.8393 11.0403 44.3549C13.6706 42.8313 14.5756 39.4433 13.0575 36.8032Z" fill="#6A25FF"/>
<path opacity="0.8" d="M5.77643 31.0283C8.57491 31.0283 10.9605 29.017 11.4477 26.2457C11.7147 24.7232 11.3756 23.1882 10.4918 21.9237C9.60902 20.6575 8.28736 19.8127 6.7693 19.5438C6.43292 19.485 6.09274 19.4551 5.76015 19.4551C2.96166 19.4551 0.57606 21.4659 0.0888481 24.2371C-0.178088 25.7586 0.161008 27.2936 1.04483 28.5597C1.9281 29.8253 3.2503 30.6707 4.76728 30.9391C5.10204 30.9984 5.44167 31.0283 5.77643 31.0283Z" fill="#6A25FF"/>
<path opacity="0.9" d="M13.0222 18.6867C14.4323 18.6867 15.806 18.1843 16.8906 17.2725C18.1211 16.2366 18.8758 14.7794 19.0163 13.1693C19.1568 11.5591 18.6653 9.99249 17.6322 8.75793C16.4853 7.38618 14.8017 6.59961 13.0146 6.59961C11.6023 6.59961 10.2286 7.10149 9.14562 8.01327C7.91348 9.05078 7.15717 10.508 7.01719 12.116C6.87667 13.7229 7.36876 15.29 8.40341 16.5273C9.55199 17.8996 11.235 18.6867 13.0222 18.6867Z" fill="#6A25FF"/>
<path d="M27.3683 14.2317C31.2983 14.2317 34.4841 11.0458 34.4841 7.11585C34.4841 3.18588 31.2983 0 27.3683 0C23.4383 0 20.2524 3.18588 20.2524 7.11585C20.2524 11.0458 23.4383 14.2317 27.3683 14.2317Z" fill="#6A25FF"/>
</svg>
